<svg width="76" height="30" viewBox="0 0 76 30" fill="none" xmlns="http://www.w3.org/2000/svg">
<mask id="path-1-outside-1_0_3088" maskUnits="userSpaceOnUse" x="-1" y="-1" width="78" height="31" fill="black">
<rect fill="white" x="-1" y="-1" width="78" height="31"/>
<path d="M73.704 2.03626C70.9196 3.77671 66.5017 5.6048 66.2666 9.42376C66.2625 9.44463 66.2749 9.45715 66.279 9.47385C64.5713 10.8595 62.7686 12.0908 60.8959 13.1551C63.4493 10.6675 64.9384 7.39533 65.1529 3.75584C65.1653 3.58472 64.9631 3.54715 64.8559 3.6348C62.0385 5.922 59.3325 10.0999 59.5594 13.8855C58.0001 14.6952 56.3955 15.3922 54.7497 15.9682C57.8186 14.0775 59.5346 10.4797 59.151 6.72753C59.1263 6.5105 58.8416 6.45624 58.7674 6.67327C58.0455 8.80605 56.0944 10.2126 54.8157 11.9906C53.8009 13.3971 53.0914 14.8955 52.7078 16.5734C52.6253 16.6067 52.5469 16.6443 52.4644 16.6735C52.4438 16.686 52.4273 16.6986 52.4108 16.7111C51.0495 17.0867 49.6677 17.3872 48.2776 17.5959C48.5168 17.4582 48.7519 17.3038 48.9747 17.1368C49.5811 16.6819 50.1256 16.1268 50.604 15.5007C52.2252 13.4055 53.145 10.5423 53.4255 8.18416C53.442 8.03391 53.2234 7.95461 53.1327 8.05895C51.8085 9.56149 50.2328 10.6216 49.1851 12.3746C48.1951 14.0232 47.5804 15.8722 47.1679 17.7462C45.2993 17.9674 43.4018 18.03 41.4961 17.9382C46.1821 16.2269 47.6382 10.7635 47.9269 6.06808C47.9352 5.90531 47.7124 5.81349 47.6052 5.9387C47.4196 6.14739 47.2298 6.35607 47.0442 6.56476C47.0359 6.5731 47.0277 6.58145 47.0194 6.59397C46.1161 7.59567 45.1838 8.58484 44.2763 9.59071C44.0701 9.81609 43.8721 10.0415 43.6699 10.271C42.9893 11.0473 42.3252 11.8362 41.7106 12.6542C41.4136 13.0466 41.1083 13.5015 40.8361 13.9898C40.7907 14.0691 40.7495 14.1442 40.7123 14.2235C40.5556 14.5241 40.4153 14.8329 40.304 15.1501C40.2627 15.2586 40.2256 15.3671 40.1967 15.4757C40.0235 16.0516 39.9451 16.6401 40.0235 17.2078C40.0482 17.4123 40.0936 17.6084 40.1637 17.8046C40.1637 17.8171 40.172 17.8296 40.1761 17.8422C40.1307 17.838 40.0895 17.8338 40.0441 17.8296C39.3676 17.7712 38.687 17.6877 38.0105 17.5834H38.0022C37.3216 17.6836 36.6368 17.767 35.9562 17.8296C35.9108 17.8338 35.8696 17.838 35.8242 17.8422C35.8283 17.8296 35.8325 17.8171 35.8366 17.8046C35.9067 17.6084 35.9521 17.4123 35.9768 17.2078C36.0717 16.5066 35.9273 15.7678 35.6592 15.0625C35.6303 14.9748 35.5932 14.8913 35.5561 14.8037C35.453 14.5533 35.3292 14.307 35.2013 14.0691C35.156 13.9815 35.1065 13.8938 35.0528 13.8062C34.8095 13.3888 34.5455 12.9965 34.2856 12.6542C33.6875 11.857 33.0481 11.0891 32.3881 10.3378C32.3881 10.3336 32.384 10.3336 32.384 10.3336C32.1819 10.1041 31.9797 9.8787 31.7776 9.65332C30.8536 8.62658 29.9007 7.61654 28.9809 6.59397C28.9726 6.58145 28.9644 6.5731 28.9561 6.56476C28.7664 6.35607 28.5766 6.14739 28.391 5.9387C28.2837 5.81349 28.061 5.90531 28.0692 6.06808C28.3456 10.5924 29.7069 15.8263 33.9969 17.7337C34.1371 17.7963 34.2856 17.8589 34.4382 17.9131C34.4589 17.9215 34.4795 17.9298 34.5001 17.9382C34.4754 17.9382 34.4547 17.9423 34.43 17.9423C34.2732 17.9507 34.1124 17.9549 33.9556 17.959C32.2314 18.0175 30.5195 17.9465 28.8324 17.7462C28.4157 15.8722 27.8011 14.0232 26.8111 12.3746C25.7634 10.6216 24.1876 9.56149 22.8635 8.05895C22.7728 7.95461 22.5541 8.03391 22.5706 8.18416C22.8511 10.5507 23.7793 13.418 25.4045 15.5174H25.4086C25.883 16.1393 26.4234 16.686 27.0256 17.1326C27.2484 17.3038 27.4794 17.4582 27.7227 17.5959C26.3285 17.3872 24.9466 17.0867 23.5895 16.7111C23.573 16.6986 23.5565 16.686 23.5359 16.6735C23.4534 16.6443 23.375 16.6067 23.2925 16.5734C22.9048 14.8955 22.1994 13.3971 21.1846 11.9906C19.9018 10.2126 17.9548 8.80605 17.2329 6.67327C17.1587 6.45624 16.874 6.5105 16.8493 6.72753C16.4615 10.4797 18.1775 14.0775 21.2465 15.9682C19.6048 15.3922 17.996 14.6952 16.4368 13.8855C16.6678 10.0999 13.9577 5.922 11.1403 3.6348C11.0331 3.54715 10.8309 3.58472 10.8433 3.75584C11.0578 7.39533 12.5469 10.6675 15.1044 13.1551C13.2317 12.0908 11.4291 10.8595 9.71718 9.47385C9.71718 9.45715 9.73368 9.44463 9.72956 9.42376C9.49856 5.6048 5.07657 3.77671 2.29633 2.03626C2.10658 1.91105 1.94158 2.13643 2.01996 2.31173C2.09421 2.48703 2.17258 2.65815 2.25508 2.82927C2.27983 2.89188 2.30871 2.95031 2.33758 3.00874C3.80195 6.00965 6.31819 8.48467 9.48618 9.56567C9.49443 9.56984 9.49856 9.56149 9.50681 9.56567C9.55218 9.58236 9.60168 9.58236 9.64706 9.56149C10.7443 10.6133 11.9241 11.5691 13.1615 12.4414C12.2004 11.928 11.2063 11.4814 10.1668 11.2143C7.80319 10.6133 5.28282 10.4463 2.87796 10.1041C2.73358 10.0832 2.55621 10.2752 2.70883 10.3962C6.55744 13.5098 11.3218 15.075 16.2429 14.6117C16.3584 14.6117 16.3667 14.4281 16.247 14.4281H16.2429C16.2429 14.4281 16.2635 14.3863 16.2677 14.3613C17.9548 15.2795 19.7285 16.0433 21.5518 16.6568C17.8104 15.843 14.003 16.1518 10.3813 17.5876C10.1833 17.6669 10.1709 17.9298 10.3772 18.0091C14.2753 19.4657 19.5718 20.1252 23.177 17.5333C23.2183 17.5333 23.2554 17.525 23.2925 17.5166C23.3915 17.5041 23.4369 17.4248 23.4369 17.3413C23.4699 17.3163 23.5029 17.2954 23.5318 17.2662C24.8724 17.6335 26.2295 17.9215 27.6031 18.126C23.7009 18.1469 19.8399 20.6094 16.7338 22.6879C16.5729 22.8006 16.6389 23.0426 16.8328 23.0552C21.1063 23.3264 26.3945 22.3331 29.2119 18.7687C29.2861 18.7312 29.3645 18.6936 29.4387 18.6602C29.5419 18.606 29.5542 18.4641 29.4965 18.3722C29.4965 18.3681 29.5006 18.3681 29.5047 18.3639C30.8454 18.4933 32.1901 18.5475 33.5307 18.5267C29.5419 19.9582 24.8476 22.8882 23.9401 26.991C23.9113 27.1245 24.0309 27.279 24.1753 27.2331C24.4393 27.1454 24.7074 27.0578 24.9796 26.9701C25.1158 26.9242 25.2519 26.8825 25.3921 26.8365C27.8919 26.0352 30.7175 25.1712 32.8336 23.627H32.8377C32.9202 23.5685 32.9945 23.5101 33.0729 23.4517C33.3946 23.2012 33.6999 22.9383 33.9804 22.6503C34.0299 22.6044 34.0794 22.5543 34.133 22.5C35.1312 21.4357 35.8325 20.1085 36.0346 18.4014C36.6863 18.3472 37.3381 18.2721 37.9857 18.1802H37.9981C38.6498 18.2721 39.3057 18.3472 39.9616 18.4014C40.1431 19.8956 40.7 21.1018 41.5085 22.091C41.5085 22.091 41.5098 22.0938 41.5126 22.0994C41.9168 22.5877 42.3665 23.0176 42.8697 23.4099C45.0188 25.0919 47.9888 26.0018 50.6082 26.8365H50.6123C50.7484 26.8825 50.8845 26.9284 51.0207 26.9701C51.2929 27.0578 51.561 27.1454 51.8209 27.2331C51.9653 27.279 52.0849 27.1245 52.056 26.991C51.1485 22.8882 46.4584 19.9582 42.4696 18.5267C43.8102 18.5475 45.1508 18.4933 46.4914 18.3639C46.4956 18.3639 46.4997 18.3639 46.4997 18.3722C46.4419 18.4641 46.4584 18.606 46.5616 18.6602C46.6358 18.6936 46.7142 18.7312 46.7884 18.7687C49.6017 22.3331 54.894 23.3264 59.1675 23.0552C59.3614 23.0426 59.4233 22.8006 59.2624 22.6879C56.1563 20.6094 52.2953 18.1469 48.3931 18.126C49.7667 17.9215 51.1279 17.6335 52.4644 17.2662C52.4933 17.2954 52.5263 17.3163 52.5593 17.3413C52.5634 17.4248 52.6088 17.5041 52.7078 17.5166C52.7449 17.525 52.782 17.5291 52.8233 17.5333C56.4244 20.1252 61.7209 19.4657 65.619 18.0091C65.8252 17.9298 65.817 17.6669 65.619 17.5876C61.9931 16.1518 58.1858 15.843 54.4485 16.6568C56.2677 16.0433 58.0455 15.2795 59.7326 14.3613C59.7326 14.3863 59.745 14.4072 59.7574 14.4281H59.7533C59.6336 14.4281 59.6378 14.6075 59.7533 14.6117C64.6744 15.075 69.4387 13.5098 73.2874 10.3962C73.44 10.2752 73.2667 10.0832 73.1182 10.1041C70.7134 10.4463 68.193 10.6133 65.8294 11.2143C64.7899 11.4814 63.7999 11.928 62.8346 12.4414C64.0721 11.5691 65.2519 10.6133 66.3491 9.56149C66.3945 9.58236 66.444 9.58236 66.4894 9.56567C66.4976 9.56149 66.5017 9.56984 66.51 9.56567C69.678 8.48467 72.1942 6.00965 73.6586 3.01292C73.6916 2.95448 73.7205 2.89188 73.7452 2.82927V2.82092C73.8277 2.6498 73.9061 2.48703 73.9803 2.31173C74.0587 2.13643 73.8896 1.91105 73.704 2.03626ZM40.4277 15.7803C40.4277 15.7803 40.4277 15.772 40.4277 15.7678V15.7803Z"/>
</mask>
<path d="M73.704 2.03626C70.9196 3.77671 66.5017 5.6048 66.2666 9.42376C66.2625 9.44463 66.2749 9.45715 66.279 9.47385C64.5713 10.8595 62.7686 12.0908 60.8959 13.1551C63.4493 10.6675 64.9384 7.39533 65.1529 3.75584C65.1653 3.58472 64.9631 3.54715 64.8559 3.6348C62.0385 5.922 59.3325 10.0999 59.5594 13.8855C58.0001 14.6952 56.3955 15.3922 54.7497 15.9682C57.8186 14.0775 59.5346 10.4797 59.151 6.72753C59.1263 6.5105 58.8416 6.45624 58.7674 6.67327C58.0455 8.80605 56.0944 10.2126 54.8157 11.9906C53.8009 13.3971 53.0914 14.8955 52.7078 16.5734C52.6253 16.6067 52.5469 16.6443 52.4644 16.6735C52.4438 16.686 52.4273 16.6986 52.4108 16.7111C51.0495 17.0867 49.6677 17.3872 48.2776 17.5959C48.5168 17.4582 48.7519 17.3038 48.9747 17.1368C49.5811 16.6819 50.1256 16.1268 50.604 15.5007C52.2252 13.4055 53.145 10.5423 53.4255 8.18416C53.442 8.03391 53.2234 7.95461 53.1327 8.05895C51.8085 9.56149 50.2328 10.6216 49.1851 12.3746C48.1951 14.0232 47.5804 15.8722 47.1679 17.7462C45.2993 17.9674 43.4018 18.03 41.4961 17.9382C46.1821 16.2269 47.6382 10.7635 47.9269 6.06808C47.9352 5.90531 47.7124 5.81349 47.6052 5.9387C47.4196 6.14739 47.2298 6.35607 47.0442 6.56476C47.0359 6.5731 47.0277 6.58145 47.0194 6.59397C46.1161 7.59567 45.1838 8.58484 44.2763 9.59071C44.0701 9.81609 43.8721 10.0415 43.6699 10.271C42.9893 11.0473 42.3252 11.8362 41.7106 12.6542C41.4136 13.0466 41.1083 13.5015 40.8361 13.9898C40.7907 14.0691 40.7495 14.1442 40.7123 14.2235C40.5556 14.5241 40.4153 14.8329 40.304 15.1501C40.2627 15.2586 40.2256 15.3671 40.1967 15.4757C40.0235 16.0516 39.9451 16.6401 40.0235 17.2078C40.0482 17.4123 40.0936 17.6084 40.1637 17.8046C40.1637 17.8171 40.172 17.8296 40.1761 17.8422C40.1307 17.838 40.0895 17.8338 40.0441 17.8296C39.3676 17.7712 38.687 17.6877 38.0105 17.5834H38.0022C37.3216 17.6836 36.6368 17.767 35.9562 17.8296C35.9108 17.8338 35.8696 17.838 35.8242 17.8422C35.8283 17.8296 35.8325 17.8171 35.8366 17.8046C35.9067 17.6084 35.9521 17.4123 35.9768 17.2078C36.0717 16.5066 35.9273 15.7678 35.6592 15.0625C35.6303 14.9748 35.5932 14.8913 35.5561 14.8037C35.453 14.5533 35.3292 14.307 35.2013 14.0691C35.156 13.9815 35.1065 13.8938 35.0528 13.8062C34.8095 13.3888 34.5455 12.9965 34.2856 12.6542C33.6875 11.857 33.0481 11.0891 32.3881 10.3378C32.3881 10.3336 32.384 10.3336 32.384 10.3336C32.1819 10.1041 31.9797 9.8787 31.7776 9.65332C30.8536 8.62658 29.9007 7.61654 28.9809 6.59397C28.9726 6.58145 28.9644 6.5731 28.9561 6.56476C28.7664 6.35607 28.5766 6.14739 28.391 5.9387C28.2837 5.81349 28.061 5.90531 28.0692 6.06808C28.3456 10.5924 29.7069 15.8263 33.9969 17.7337C34.1371 17.7963 34.2856 17.8589 34.4382 17.9131C34.4589 17.9215 34.4795 17.9298 34.5001 17.9382C34.4754 17.9382 34.4547 17.9423 34.43 17.9423C34.2732 17.9507 34.1124 17.9549 33.9556 17.959C32.2314 18.0175 30.5195 17.9465 28.8324 17.7462C28.4157 15.8722 27.8011 14.0232 26.8111 12.3746C25.7634 10.6216 24.1876 9.56149 22.8635 8.05895C22.7728 7.95461 22.5541 8.03391 22.5706 8.18416C22.8511 10.5507 23.7793 13.418 25.4045 15.5174H25.4086C25.883 16.1393 26.4234 16.686 27.0256 17.1326C27.2484 17.3038 27.4794 17.4582 27.7227 17.5959C26.3285 17.3872 24.9466 17.0867 23.5895 16.7111C23.573 16.6986 23.5565 16.686 23.5359 16.6735C23.4534 16.6443 23.375 16.6067 23.2925 16.5734C22.9048 14.8955 22.1994 13.3971 21.1846 11.9906C19.9018 10.2126 17.9548 8.80605 17.2329 6.67327C17.1587 6.45624 16.874 6.5105 16.8493 6.72753C16.4615 10.4797 18.1775 14.0775 21.2465 15.9682C19.6048 15.3922 17.996 14.6952 16.4368 13.8855C16.6678 10.0999 13.9577 5.922 11.1403 3.6348C11.0331 3.54715 10.8309 3.58472 10.8433 3.75584C11.0578 7.39533 12.5469 10.6675 15.1044 13.1551C13.2317 12.0908 11.4291 10.8595 9.71718 9.47385C9.71718 9.45715 9.73368 9.44463 9.72956 9.42376C9.49856 5.6048 5.07657 3.77671 2.29633 2.03626C2.10658 1.91105 1.94158 2.13643 2.01996 2.31173C2.09421 2.48703 2.17258 2.65815 2.25508 2.82927C2.27983 2.89188 2.30871 2.95031 2.33758 3.00874C3.80195 6.00965 6.31819 8.48467 9.48618 9.56567C9.49443 9.56984 9.49856 9.56149 9.50681 9.56567C9.55218 9.58236 9.60168 9.58236 9.64706 9.56149C10.7443 10.6133 11.9241 11.5691 13.1615 12.4414C12.2004 11.928 11.2063 11.4814 10.1668 11.2143C7.80319 10.6133 5.28282 10.4463 2.87796 10.1041C2.73358 10.0832 2.55621 10.2752 2.70883 10.3962C6.55744 13.5098 11.3218 15.075 16.2429 14.6117C16.3584 14.6117 16.3667 14.4281 16.247 14.4281H16.2429C16.2429 14.4281 16.2635 14.3863 16.2677 14.3613C17.9548 15.2795 19.7285 16.0433 21.5518 16.6568C17.8104 15.843 14.003 16.1518 10.3813 17.5876C10.1833 17.6669 10.1709 17.9298 10.3772 18.0091C14.2753 19.4657 19.5718 20.1252 23.177 17.5333C23.2183 17.5333 23.2554 17.525 23.2925 17.5166C23.3915 17.5041 23.4369 17.4248 23.4369 17.3413C23.4699 17.3163 23.5029 17.2954 23.5318 17.2662C24.8724 17.6335 26.2295 17.9215 27.6031 18.126C23.7009 18.1469 19.8399 20.6094 16.7338 22.6879C16.5729 22.8006 16.6389 23.0426 16.8328 23.0552C21.1063 23.3264 26.3945 22.3331 29.2119 18.7687C29.2861 18.7312 29.3645 18.6936 29.4387 18.6602C29.5419 18.606 29.5542 18.4641 29.4965 18.3722C29.4965 18.3681 29.5006 18.3681 29.5047 18.3639C30.8454 18.4933 32.1901 18.5475 33.5307 18.5267C29.5419 19.9582 24.8476 22.8882 23.9401 26.991C23.9113 27.1245 24.0309 27.279 24.1753 27.2331C24.4393 27.1454 24.7074 27.0578 24.9796 26.9701C25.1158 26.9242 25.2519 26.8825 25.3921 26.8365C27.8919 26.0352 30.7175 25.1712 32.8336 23.627H32.8377C32.9202 23.5685 32.9945 23.5101 33.0729 23.4517C33.3946 23.2012 33.6999 22.9383 33.9804 22.6503C34.0299 22.6044 34.0794 22.5543 34.133 22.5C35.1312 21.4357 35.8325 20.1085 36.0346 18.4014C36.6863 18.3472 37.3381 18.2721 37.9857 18.1802H37.9981C38.6498 18.2721 39.3057 18.3472 39.9616 18.4014C40.1431 19.8956 40.7 21.1018 41.5085 22.091C41.5085 22.091 41.5098 22.0938 41.5126 22.0994C41.9168 22.5877 42.3665 23.0176 42.8697 23.4099C45.0188 25.0919 47.9888 26.0018 50.6082 26.8365H50.6123C50.7484 26.8825 50.8845 26.9284 51.0207 26.9701C51.2929 27.0578 51.561 27.1454 51.8209 27.2331C51.9653 27.279 52.0849 27.1245 52.056 26.991C51.1485 22.8882 46.4584 19.9582 42.4696 18.5267C43.8102 18.5475 45.1508 18.4933 46.4914 18.3639C46.4956 18.3639 46.4997 18.3639 46.4997 18.3722C46.4419 18.4641 46.4584 18.606 46.5616 18.6602C46.6358 18.6936 46.7142 18.7312 46.7884 18.7687C49.6017 22.3331 54.894 23.3264 59.1675 23.0552C59.3614 23.0426 59.4233 22.8006 59.2624 22.6879C56.1563 20.6094 52.2953 18.1469 48.3931 18.126C49.7667 17.9215 51.1279 17.6335 52.4644 17.2662C52.4933 17.2954 52.5263 17.3163 52.5593 17.3413C52.5634 17.4248 52.6088 17.5041 52.7078 17.5166C52.7449 17.525 52.782 17.5291 52.8233 17.5333C56.4244 20.1252 61.7209 19.4657 65.619 18.0091C65.8252 17.9298 65.817 17.6669 65.619 17.5876C61.9931 16.1518 58.1858 15.843 54.4485 16.6568C56.2677 16.0433 58.0455 15.2795 59.7326 14.3613C59.7326 14.3863 59.745 14.4072 59.7574 14.4281H59.7533C59.6336 14.4281 59.6378 14.6075 59.7533 14.6117C64.6744 15.075 69.4387 13.5098 73.2874 10.3962C73.44 10.2752 73.2667 10.0832 73.1182 10.1041C70.7134 10.4463 68.193 10.6133 65.8294 11.2143C64.7899 11.4814 63.7999 11.928 62.8346 12.4414C64.0721 11.5691 65.2519 10.6133 66.3491 9.56149C66.3945 9.58236 66.444 9.58236 66.4894 9.56567C66.4976 9.56149 66.5017 9.56984 66.51 9.56567C69.678 8.48467 72.1942 6.00965 73.6586 3.01292C73.6916 2.95448 73.7205 2.89188 73.7452 2.82927V2.82092C73.8277 2.6498 73.9061 2.48703 73.9803 2.31173C74.0587 2.13643 73.8896 1.91105 73.704 2.03626ZM40.4277 15.7803C40.4277 15.7803 40.4277 15.772 40.4277 15.7678V15.7803Z" fill="white"/>
<path d="M73.704 2.03626C70.9196 3.77671 66.5017 5.6048 66.2666 9.42376C66.2625 9.44463 66.2749 9.45715 66.279 9.47385C64.5713 10.8595 62.7686 12.0908 60.8959 13.1551C63.4493 10.6675 64.9384 7.39533 65.1529 3.75584C65.1653 3.58472 64.9631 3.54715 64.8559 3.6348C62.0385 5.922 59.3325 10.0999 59.5594 13.8855C58.0001 14.6952 56.3955 15.3922 54.7497 15.9682C57.8186 14.0775 59.5346 10.4797 59.151 6.72753C59.1263 6.5105 58.8416 6.45624 58.7674 6.67327C58.0455 8.80605 56.0944 10.2126 54.8157 11.9906C53.8009 13.3971 53.0914 14.8955 52.7078 16.5734C52.6253 16.6067 52.5469 16.6443 52.4644 16.6735C52.4438 16.686 52.4273 16.6986 52.4108 16.7111C51.0495 17.0867 49.6677 17.3872 48.2776 17.5959C48.5168 17.4582 48.7519 17.3038 48.9747 17.1368C49.5811 16.6819 50.1256 16.1268 50.604 15.5007C52.2252 13.4055 53.145 10.5423 53.4255 8.18416C53.442 8.03391 53.2234 7.95461 53.1327 8.05895C51.8085 9.56149 50.2328 10.6216 49.1851 12.3746C48.1951 14.0232 47.5804 15.8722 47.1679 17.7462C45.2993 17.9674 43.4018 18.03 41.4961 17.9382C46.1821 16.2269 47.6382 10.7635 47.9269 6.06808C47.9352 5.90531 47.7124 5.81349 47.6052 5.9387C47.4196 6.14739 47.2298 6.35607 47.0442 6.56476C47.0359 6.5731 47.0277 6.58145 47.0194 6.59397C46.1161 7.59567 45.1838 8.58484 44.2763 9.59071C44.0701 9.81609 43.8721 10.0415 43.6699 10.271C42.9893 11.0473 42.3252 11.8362 41.7106 12.6542C41.4136 13.0466 41.1083 13.5015 40.8361 13.9898C40.7907 14.0691 40.7495 14.1442 40.7123 14.2235C40.5556 14.5241 40.4153 14.8329 40.304 15.1501C40.2627 15.2586 40.2256 15.3671 40.1967 15.4757C40.0235 16.0516 39.9451 16.6401 40.0235 17.2078C40.0482 17.4123 40.0936 17.6084 40.1637 17.8046C40.1637 17.8171 40.172 17.8296 40.1761 17.8422C40.1307 17.838 40.0895 17.8338 40.0441 17.8296C39.3676 17.7712 38.687 17.6877 38.0105 17.5834H38.0022C37.3216 17.6836 36.6368 17.767 35.9562 17.8296C35.9108 17.8338 35.8696 17.838 35.8242 17.8422C35.8283 17.8296 35.8325 17.8171 35.8366 17.8046C35.9067 17.6084 35.9521 17.4123 35.9768 17.2078C36.0717 16.5066 35.9273 15.7678 35.6592 15.0625C35.6303 14.9748 35.5932 14.8913 35.5561 14.8037C35.453 14.5533 35.3292 14.307 35.2013 14.0691C35.156 13.9815 35.1065 13.8938 35.0528 13.8062C34.8095 13.3888 34.5455 12.9965 34.2856 12.6542C33.6875 11.857 33.0481 11.0891 32.3881 10.3378C32.3881 10.3336 32.384 10.3336 32.384 10.3336C32.1819 10.1041 31.9797 9.8787 31.7776 9.65332C30.8536 8.62658 29.9007 7.61654 28.9809 6.59397C28.9726 6.58145 28.9644 6.5731 28.9561 6.56476C28.7664 6.35607 28.5766 6.14739 28.391 5.9387C28.2837 5.81349 28.061 5.90531 28.0692 6.06808C28.3456 10.5924 29.7069 15.8263 33.9969 17.7337C34.1371 17.7963 34.2856 17.8589 34.4382 17.9131C34.4589 17.9215 34.4795 17.9298 34.5001 17.9382C34.4754 17.9382 34.4547 17.9423 34.43 17.9423C34.2732 17.9507 34.1124 17.9549 33.9556 17.959C32.2314 18.0175 30.5195 17.9465 28.8324 17.7462C28.4157 15.8722 27.8011 14.0232 26.8111 12.3746C25.7634 10.6216 24.1876 9.56149 22.8635 8.05895C22.7728 7.95461 22.5541 8.03391 22.5706 8.18416C22.8511 10.5507 23.7793 13.418 25.4045 15.5174H25.4086C25.883 16.1393 26.4234 16.686 27.0256 17.1326C27.2484 17.3038 27.4794 17.4582 27.7227 17.5959C26.3285 17.3872 24.9466 17.0867 23.5895 16.7111C23.573 16.6986 23.5565 16.686 23.5359 16.6735C23.4534 16.6443 23.375 16.6067 23.2925 16.5734C22.9048 14.8955 22.1994 13.3971 21.1846 11.9906C19.9018 10.2126 17.9548 8.80605 17.2329 6.67327C17.1587 6.45624 16.874 6.5105 16.8493 6.72753C16.4615 10.4797 18.1775 14.0775 21.2465 15.9682C19.6048 15.3922 17.996 14.6952 16.4368 13.8855C16.6678 10.0999 13.9577 5.922 11.1403 3.6348C11.0331 3.54715 10.8309 3.58472 10.8433 3.75584C11.0578 7.39533 12.5469 10.6675 15.1044 13.1551C13.2317 12.0908 11.4291 10.8595 9.71718 9.47385C9.71718 9.45715 9.73368 9.44463 9.72956 9.42376C9.49856 5.6048 5.07657 3.77671 2.29633 2.03626C2.10658 1.91105 1.94158 2.13643 2.01996 2.31173C2.09421 2.48703 2.17258 2.65815 2.25508 2.82927C2.27983 2.89188 2.30871 2.95031 2.33758 3.00874C3.80195 6.00965 6.31819 8.48467 9.48618 9.56567C9.49443 9.56984 9.49856 9.56149 9.50681 9.56567C9.55218 9.58236 9.60168 9.58236 9.64706 9.56149C10.7443 10.6133 11.9241 11.5691 13.1615 12.4414C12.2004 11.928 11.2063 11.4814 10.1668 11.2143C7.80319 10.6133 5.28282 10.4463 2.87796 10.1041C2.73358 10.0832 2.55621 10.2752 2.70883 10.3962C6.55744 13.5098 11.3218 15.075 16.2429 14.6117C16.3584 14.6117 16.3667 14.4281 16.247 14.4281H16.2429C16.2429 14.4281 16.2635 14.3863 16.2677 14.3613C17.9548 15.2795 19.7285 16.0433 21.5518 16.6568C17.8104 15.843 14.003 16.1518 10.3813 17.5876C10.1833 17.6669 10.1709 17.9298 10.3772 18.0091C14.2753 19.4657 19.5718 20.1252 23.177 17.5333C23.2183 17.5333 23.2554 17.525 23.2925 17.5166C23.3915 17.5041 23.4369 17.4248 23.4369 17.3413C23.4699 17.3163 23.5029 17.2954 23.5318 17.2662C24.8724 17.6335 26.2295 17.9215 27.6031 18.126C23.7009 18.1469 19.8399 20.6094 16.7338 22.6879C16.5729 22.8006 16.6389 23.0426 16.8328 23.0552C21.1063 23.3264 26.3945 22.3331 29.2119 18.7687C29.2861 18.7312 29.3645 18.6936 29.4387 18.6602C29.5419 18.606 29.5542 18.4641 29.4965 18.3722C29.4965 18.3681 29.5006 18.3681 29.5047 18.3639C30.8454 18.4933 32.1901 18.5475 33.5307 18.5267C29.5419 19.9582 24.8476 22.8882 23.9401 26.991C23.9113 27.1245 24.0309 27.279 24.1753 27.2331C24.4393 27.1454 24.7074 27.0578 24.9796 26.9701C25.1158 26.9242 25.2519 26.8825 25.3921 26.8365C27.8919 26.0352 30.7175 25.1712 32.8336 23.627H32.8377C32.9202 23.5685 32.9945 23.5101 33.0729 23.4517C33.3946 23.2012 33.6999 22.9383 33.9804 22.6503C34.0299 22.6044 34.0794 22.5543 34.133 22.5C35.1312 21.4357 35.8325 20.1085 36.0346 18.4014C36.6863 18.3472 37.3381 18.2721 37.9857 18.1802H37.9981C38.6498 18.2721 39.3057 18.3472 39.9616 18.4014C40.1431 19.8956 40.7 21.1018 41.5085 22.091C41.5085 22.091 41.5098 22.0938 41.5126 22.0994C41.9168 22.5877 42.3665 23.0176 42.8697 23.4099C45.0188 25.0919 47.9888 26.0018 50.6082 26.8365H50.6123C50.7484 26.8825 50.8845 26.9284 51.0207 26.9701C51.2929 27.0578 51.561 27.1454 51.8209 27.2331C51.9653 27.279 52.0849 27.1245 52.056 26.991C51.1485 22.8882 46.4584 19.9582 42.4696 18.5267C43.8102 18.5475 45.1508 18.4933 46.4914 18.3639C46.4956 18.3639 46.4997 18.3639 46.4997 18.3722C46.4419 18.4641 46.4584 18.606 46.5616 18.6602C46.6358 18.6936 46.7142 18.7312 46.7884 18.7687C49.6017 22.3331 54.894 23.3264 59.1675 23.0552C59.3614 23.0426 59.4233 22.8006 59.2624 22.6879C56.1563 20.6094 52.2953 18.1469 48.3931 18.126C49.7667 17.9215 51.1279 17.6335 52.4644 17.2662C52.4933 17.2954 52.5263 17.3163 52.5593 17.3413C52.5634 17.4248 52.6088 17.5041 52.7078 17.5166C52.7449 17.525 52.782 17.5291 52.8233 17.5333C56.4244 20.1252 61.7209 19.4657 65.619 18.0091C65.8252 17.9298 65.817 17.6669 65.619 17.5876C61.9931 16.1518 58.1858 15.843 54.4485 16.6568C56.2677 16.0433 58.0455 15.2795 59.7326 14.3613C59.7326 14.3863 59.745 14.4072 59.7574 14.4281H59.7533C59.6336 14.4281 59.6378 14.6075 59.7533 14.6117C64.6744 15.075 69.4387 13.5098 73.2874 10.3962C73.44 10.2752 73.2667 10.0832 73.1182 10.1041C70.7134 10.4463 68.193 10.6133 65.8294 11.2143C64.7899 11.4814 63.7999 11.928 62.8346 12.4414C64.0721 11.5691 65.2519 10.6133 66.3491 9.56149C66.3945 9.58236 66.444 9.58236 66.4894 9.56567C66.4976 9.56149 66.5017 9.56984 66.51 9.56567C69.678 8.48467 72.1942 6.00965 73.6586 3.01292C73.6916 2.95448 73.7205 2.89188 73.7452 2.82927V2.82092C73.8277 2.6498 73.9061 2.48703 73.9803 2.31173C74.0587 2.13643 73.8896 1.91105 73.704 2.03626ZM40.4277 15.7803C40.4277 15.7803 40.4277 15.772 40.4277 15.7678V15.7803Z" stroke="black" stroke-width="4" mask="url(#path-1-outside-1_0_3088)"/>
</svg>
