<svg width="76" height="30" viewBox="0 0 76 30" fill="none" xmlns="http://www.w3.org/2000/svg">
<mask id="path-1-outside-1_0_3094" maskUnits="userSpaceOnUse" x="-1" y="-0.241333" width="78" height="31" fill="black">
<rect fill="white" x="-1" y="-0.241333" width="78" height="31"/>
<path d="M73.704 2.79493C70.9196 4.53538 66.5017 6.36347 66.2666 10.1824C66.2625 10.2033 66.2749 10.2158 66.279 10.2325C64.5713 11.6182 62.7686 12.8494 60.8959 13.9137C63.4493 11.4262 64.9384 8.154 65.1529 4.51451C65.1653 4.34338 64.9631 4.30582 64.8559 4.39347C62.0385 6.68067 59.3325 10.8586 59.5594 14.6441C58.0001 15.4538 56.3955 16.1509 54.7497 16.7268C57.8186 14.8361 59.5346 11.2384 59.151 7.4862C59.1263 7.26917 58.8416 7.21491 58.7674 7.43194C58.0455 9.56472 56.0944 10.9713 54.8157 12.7493C53.8009 14.1558 53.0914 15.6542 52.7078 17.332C52.6253 17.3654 52.5469 17.403 52.4644 17.4322C52.4438 17.4447 52.4273 17.4572 52.4108 17.4698C51.0495 17.8454 49.6677 18.1459 48.2776 18.3546C48.5168 18.2169 48.7519 18.0624 48.9747 17.8955C49.5811 17.4405 50.1256 16.8854 50.604 16.2594C52.2252 14.1642 53.145 11.301 53.4255 8.94283C53.442 8.79258 53.2234 8.71328 53.1327 8.81762C51.8085 10.3202 50.2328 11.3803 49.1851 13.1333C48.1951 14.7819 47.5804 16.6308 47.1679 18.5048C45.2993 18.726 43.4018 18.7887 41.4961 18.6968C46.1821 16.9856 47.6382 11.5222 47.9269 6.82675C47.9352 6.66398 47.7124 6.57215 47.6052 6.69737C47.4196 6.90605 47.2298 7.11474 47.0442 7.32342C47.0359 7.33177 47.0277 7.34012 47.0194 7.35264C46.1161 8.35434 45.1838 9.34351 44.2763 10.3494C44.0701 10.5748 43.8721 10.8001 43.6699 11.0297C42.9893 11.806 42.3252 12.5948 41.7106 13.4129C41.4136 13.8052 41.1083 14.2602 40.8361 14.7485C40.7907 14.8278 40.7495 14.9029 40.7123 14.9822C40.5556 15.2827 40.4153 15.5916 40.304 15.9088C40.2627 16.0173 40.2256 16.1258 40.1967 16.2343C40.0235 16.8103 39.9451 17.3988 40.0235 17.9664C40.0482 18.1709 40.0936 18.3671 40.1637 18.5633C40.1637 18.5758 40.172 18.5883 40.1761 18.6008C40.1307 18.5967 40.0895 18.5925 40.0441 18.5883C39.3676 18.5299 38.687 18.4464 38.0105 18.3421H38.0022C37.3216 18.4422 36.6368 18.5257 35.9562 18.5883C35.9108 18.5925 35.8696 18.5967 35.8242 18.6008C35.8283 18.5883 35.8325 18.5758 35.8366 18.5633C35.9067 18.3671 35.9521 18.1709 35.9768 17.9664C36.0717 17.2652 35.9273 16.5265 35.6592 15.8211C35.6303 15.7335 35.5932 15.65 35.5561 15.5624C35.453 15.3119 35.3292 15.0657 35.2013 14.8278C35.156 14.7401 35.1065 14.6525 35.0528 14.5648C34.8095 14.1475 34.5455 13.7551 34.2856 13.4129C33.6875 12.6157 33.0481 11.8477 32.3881 11.0965C32.3881 11.0923 32.384 11.0923 32.384 11.0923C32.1819 10.8627 31.9797 10.6374 31.7776 10.412C30.8536 9.38525 29.9007 8.3752 28.9809 7.35264C28.9726 7.34012 28.9644 7.33177 28.9561 7.32342C28.7664 7.11474 28.5766 6.90605 28.391 6.69737C28.2837 6.57215 28.061 6.66398 28.0692 6.82675C28.3456 11.3511 29.7069 16.5849 33.9969 18.4923C34.1371 18.5549 34.2856 18.6175 34.4382 18.6718C34.4589 18.6801 34.4795 18.6885 34.5001 18.6968C34.4754 18.6968 34.4547 18.701 34.43 18.701C34.2732 18.7094 34.1124 18.7135 33.9556 18.7177C32.2314 18.7761 30.5195 18.7052 28.8324 18.5048C28.4157 16.6308 27.8011 14.7819 26.8111 13.1333C25.7634 11.3803 24.1876 10.3202 22.8635 8.81762C22.7728 8.71328 22.5541 8.79258 22.5706 8.94283C22.8511 11.3093 23.7793 14.1767 25.4045 16.2761H25.4086C25.883 16.898 26.4234 17.4447 27.0256 17.8913C27.2484 18.0624 27.4794 18.2169 27.7227 18.3546C26.3285 18.1459 24.9466 17.8454 23.5895 17.4698C23.573 17.4572 23.5565 17.4447 23.5359 17.4322C23.4534 17.403 23.375 17.3654 23.2925 17.332C22.9048 15.6542 22.1994 14.1558 21.1846 12.7493C19.9018 10.9713 17.9548 9.56472 17.2329 7.43194C17.1587 7.21491 16.874 7.26917 16.8493 7.4862C16.4615 11.2384 18.1775 14.8361 21.2465 16.7268C19.6048 16.1509 17.996 15.4538 16.4368 14.6441C16.6678 10.8586 13.9577 6.68067 11.1403 4.39347C11.0331 4.30582 10.8309 4.34338 10.8433 4.51451C11.0578 8.154 12.5469 11.4262 15.1044 13.9137C13.2317 12.8494 11.4291 11.6182 9.71718 10.2325C9.71718 10.2158 9.73368 10.2033 9.72956 10.1824C9.49856 6.36347 5.07657 4.53538 2.29633 2.79493C2.10658 2.66972 1.94158 2.8951 2.01996 3.0704C2.09421 3.24569 2.17258 3.41682 2.25508 3.58794C2.27983 3.65055 2.30871 3.70898 2.33758 3.76741C3.80195 6.76832 6.31819 9.24334 9.48618 10.3243C9.49443 10.3285 9.49856 10.3202 9.50681 10.3243C9.55218 10.341 9.60168 10.341 9.64706 10.3202C10.7443 11.3719 11.9241 12.3277 13.1615 13.2C12.2004 12.6867 11.2063 12.2401 10.1668 11.973C7.80319 11.3719 5.28282 11.205 2.87796 10.8627C2.73358 10.8419 2.55621 11.0339 2.70883 11.1549C6.55744 14.2685 11.3218 15.8337 16.2429 15.3704C16.3584 15.3704 16.3667 15.1867 16.247 15.1867H16.2429C16.2429 15.1867 16.2635 15.145 16.2677 15.1199C17.9548 16.0382 19.7285 16.802 21.5518 17.4155C17.8104 16.6016 14.003 16.9105 10.3813 18.3462C10.1833 18.4255 10.1709 18.6885 10.3772 18.7678C14.2753 20.2244 19.5718 20.8839 23.177 18.292C23.2183 18.292 23.2554 18.2836 23.2925 18.2753C23.3915 18.2628 23.4369 18.1835 23.4369 18.1C23.4699 18.0749 23.5029 18.0541 23.5318 18.0249C24.8724 18.3921 26.2295 18.6801 27.6031 18.8846C23.7009 18.9055 19.8399 21.368 16.7338 23.4465C16.5729 23.5592 16.6389 23.8013 16.8328 23.8138C21.1063 24.0851 26.3945 23.0918 29.2119 19.5274C29.2861 19.4898 29.3645 19.4523 29.4387 19.4189C29.5419 19.3646 29.5542 19.2227 29.4965 19.1309C29.4965 19.1267 29.5006 19.1267 29.5047 19.1226C30.8454 19.2519 32.1901 19.3062 33.5307 19.2853C29.5419 20.7169 24.8476 23.6469 23.9401 27.7496C23.9113 27.8832 24.0309 28.0376 24.1753 27.9917C24.4393 27.9041 24.7074 27.8164 24.9796 27.7288C25.1158 27.6829 25.2519 27.6411 25.3921 27.5952C27.8919 26.7939 30.7175 25.9299 32.8336 24.3856H32.8377C32.9202 24.3272 32.9945 24.2688 33.0729 24.2103C33.3946 23.9599 33.6999 23.697 33.9804 23.409C34.0299 23.3631 34.0794 23.313 34.133 23.2587C35.1312 22.1944 35.8325 20.8672 36.0346 19.1601C36.6863 19.1059 37.3381 19.0307 37.9857 18.9389H37.9981C38.6498 19.0307 39.3057 19.1059 39.9616 19.1601C40.1431 20.6543 40.7 21.8605 41.5085 22.8497C41.5085 22.8497 41.5098 22.8525 41.5126 22.858C41.9168 23.3464 42.3665 23.7763 42.8697 24.1686C45.0188 25.8506 47.9888 26.7605 50.6082 27.5952H50.6123C50.7484 27.6411 50.8845 27.687 51.0207 27.7288C51.2929 27.8164 51.561 27.9041 51.8209 27.9917C51.9653 28.0376 52.0849 27.8832 52.056 27.7496C51.1485 23.6469 46.4584 20.7169 42.4696 19.2853C43.8102 19.3062 45.1508 19.2519 46.4914 19.1226C46.4956 19.1226 46.4997 19.1226 46.4997 19.1309C46.4419 19.2227 46.4584 19.3646 46.5616 19.4189C46.6358 19.4523 46.7142 19.4898 46.7884 19.5274C49.6017 23.0918 54.894 24.0851 59.1675 23.8138C59.3614 23.8013 59.4233 23.5592 59.2624 23.4465C56.1563 21.368 52.2953 18.9055 48.3931 18.8846C49.7667 18.6801 51.1279 18.3921 52.4644 18.0249C52.4933 18.0541 52.5263 18.0749 52.5593 18.1C52.5634 18.1835 52.6088 18.2628 52.7078 18.2753C52.7449 18.2836 52.782 18.2878 52.8233 18.292C56.4244 20.8839 61.7209 20.2244 65.619 18.7678C65.8252 18.6885 65.817 18.4255 65.619 18.3462C61.9931 16.9105 58.1858 16.6016 54.4485 17.4155C56.2677 16.802 58.0455 16.0382 59.7326 15.1199C59.7326 15.145 59.745 15.1659 59.7574 15.1867H59.7533C59.6336 15.1867 59.6378 15.3662 59.7533 15.3704C64.6744 15.8337 69.4387 14.2685 73.2874 11.1549C73.44 11.0339 73.2667 10.8419 73.1182 10.8627C70.7134 11.205 68.193 11.3719 65.8294 11.973C64.7899 12.2401 63.7999 12.6867 62.8346 13.2C64.0721 12.3277 65.2519 11.3719 66.3491 10.3202C66.3945 10.341 66.444 10.341 66.4894 10.3243C66.4976 10.3202 66.5017 10.3285 66.51 10.3243C69.678 9.24334 72.1942 6.76832 73.6586 3.77158C73.6916 3.71315 73.7205 3.65055 73.7452 3.58794V3.57959C73.8277 3.40847 73.9061 3.24569 73.9803 3.0704C74.0587 2.8951 73.8896 2.66972 73.704 2.79493ZM40.4277 16.539C40.4277 16.539 40.4277 16.5307 40.4277 16.5265V16.539Z"/>
</mask>
<path d="M73.704 2.79493C70.9196 4.53538 66.5017 6.36347 66.2666 10.1824C66.2625 10.2033 66.2749 10.2158 66.279 10.2325C64.5713 11.6182 62.7686 12.8494 60.8959 13.9137C63.4493 11.4262 64.9384 8.154 65.1529 4.51451C65.1653 4.34338 64.9631 4.30582 64.8559 4.39347C62.0385 6.68067 59.3325 10.8586 59.5594 14.6441C58.0001 15.4538 56.3955 16.1509 54.7497 16.7268C57.8186 14.8361 59.5346 11.2384 59.151 7.4862C59.1263 7.26917 58.8416 7.21491 58.7674 7.43194C58.0455 9.56472 56.0944 10.9713 54.8157 12.7493C53.8009 14.1558 53.0914 15.6542 52.7078 17.332C52.6253 17.3654 52.5469 17.403 52.4644 17.4322C52.4438 17.4447 52.4273 17.4572 52.4108 17.4698C51.0495 17.8454 49.6677 18.1459 48.2776 18.3546C48.5168 18.2169 48.7519 18.0624 48.9747 17.8955C49.5811 17.4405 50.1256 16.8854 50.604 16.2594C52.2252 14.1642 53.145 11.301 53.4255 8.94283C53.442 8.79258 53.2234 8.71328 53.1327 8.81762C51.8085 10.3202 50.2328 11.3803 49.1851 13.1333C48.1951 14.7819 47.5804 16.6308 47.1679 18.5048C45.2993 18.726 43.4018 18.7887 41.4961 18.6968C46.1821 16.9856 47.6382 11.5222 47.9269 6.82675C47.9352 6.66398 47.7124 6.57215 47.6052 6.69737C47.4196 6.90605 47.2298 7.11474 47.0442 7.32342C47.0359 7.33177 47.0277 7.34012 47.0194 7.35264C46.1161 8.35434 45.1838 9.34351 44.2763 10.3494C44.0701 10.5748 43.8721 10.8001 43.6699 11.0297C42.9893 11.806 42.3252 12.5948 41.7106 13.4129C41.4136 13.8052 41.1083 14.2602 40.8361 14.7485C40.7907 14.8278 40.7495 14.9029 40.7123 14.9822C40.5556 15.2827 40.4153 15.5916 40.304 15.9088C40.2627 16.0173 40.2256 16.1258 40.1967 16.2343C40.0235 16.8103 39.9451 17.3988 40.0235 17.9664C40.0482 18.1709 40.0936 18.3671 40.1637 18.5633C40.1637 18.5758 40.172 18.5883 40.1761 18.6008C40.1307 18.5967 40.0895 18.5925 40.0441 18.5883C39.3676 18.5299 38.687 18.4464 38.0105 18.3421H38.0022C37.3216 18.4422 36.6368 18.5257 35.9562 18.5883C35.9108 18.5925 35.8696 18.5967 35.8242 18.6008C35.8283 18.5883 35.8325 18.5758 35.8366 18.5633C35.9067 18.3671 35.9521 18.1709 35.9768 17.9664C36.0717 17.2652 35.9273 16.5265 35.6592 15.8211C35.6303 15.7335 35.5932 15.65 35.5561 15.5624C35.453 15.3119 35.3292 15.0657 35.2013 14.8278C35.156 14.7401 35.1065 14.6525 35.0528 14.5648C34.8095 14.1475 34.5455 13.7551 34.2856 13.4129C33.6875 12.6157 33.0481 11.8477 32.3881 11.0965C32.3881 11.0923 32.384 11.0923 32.384 11.0923C32.1819 10.8627 31.9797 10.6374 31.7776 10.412C30.8536 9.38525 29.9007 8.3752 28.9809 7.35264C28.9726 7.34012 28.9644 7.33177 28.9561 7.32342C28.7664 7.11474 28.5766 6.90605 28.391 6.69737C28.2837 6.57215 28.061 6.66398 28.0692 6.82675C28.3456 11.3511 29.7069 16.5849 33.9969 18.4923C34.1371 18.5549 34.2856 18.6175 34.4382 18.6718C34.4589 18.6801 34.4795 18.6885 34.5001 18.6968C34.4754 18.6968 34.4547 18.701 34.43 18.701C34.2732 18.7094 34.1124 18.7135 33.9556 18.7177C32.2314 18.7761 30.5195 18.7052 28.8324 18.5048C28.4157 16.6308 27.8011 14.7819 26.8111 13.1333C25.7634 11.3803 24.1876 10.3202 22.8635 8.81762C22.7728 8.71328 22.5541 8.79258 22.5706 8.94283C22.8511 11.3093 23.7793 14.1767 25.4045 16.2761H25.4086C25.883 16.898 26.4234 17.4447 27.0256 17.8913C27.2484 18.0624 27.4794 18.2169 27.7227 18.3546C26.3285 18.1459 24.9466 17.8454 23.5895 17.4698C23.573 17.4572 23.5565 17.4447 23.5359 17.4322C23.4534 17.403 23.375 17.3654 23.2925 17.332C22.9048 15.6542 22.1994 14.1558 21.1846 12.7493C19.9018 10.9713 17.9548 9.56472 17.2329 7.43194C17.1587 7.21491 16.874 7.26917 16.8493 7.4862C16.4615 11.2384 18.1775 14.8361 21.2465 16.7268C19.6048 16.1509 17.996 15.4538 16.4368 14.6441C16.6678 10.8586 13.9577 6.68067 11.1403 4.39347C11.0331 4.30582 10.8309 4.34338 10.8433 4.51451C11.0578 8.154 12.5469 11.4262 15.1044 13.9137C13.2317 12.8494 11.4291 11.6182 9.71718 10.2325C9.71718 10.2158 9.73368 10.2033 9.72956 10.1824C9.49856 6.36347 5.07657 4.53538 2.29633 2.79493C2.10658 2.66972 1.94158 2.8951 2.01996 3.0704C2.09421 3.24569 2.17258 3.41682 2.25508 3.58794C2.27983 3.65055 2.30871 3.70898 2.33758 3.76741C3.80195 6.76832 6.31819 9.24334 9.48618 10.3243C9.49443 10.3285 9.49856 10.3202 9.50681 10.3243C9.55218 10.341 9.60168 10.341 9.64706 10.3202C10.7443 11.3719 11.9241 12.3277 13.1615 13.2C12.2004 12.6867 11.2063 12.2401 10.1668 11.973C7.80319 11.3719 5.28282 11.205 2.87796 10.8627C2.73358 10.8419 2.55621 11.0339 2.70883 11.1549C6.55744 14.2685 11.3218 15.8337 16.2429 15.3704C16.3584 15.3704 16.3667 15.1867 16.247 15.1867H16.2429C16.2429 15.1867 16.2635 15.145 16.2677 15.1199C17.9548 16.0382 19.7285 16.802 21.5518 17.4155C17.8104 16.6016 14.003 16.9105 10.3813 18.3462C10.1833 18.4255 10.1709 18.6885 10.3772 18.7678C14.2753 20.2244 19.5718 20.8839 23.177 18.292C23.2183 18.292 23.2554 18.2836 23.2925 18.2753C23.3915 18.2628 23.4369 18.1835 23.4369 18.1C23.4699 18.0749 23.5029 18.0541 23.5318 18.0249C24.8724 18.3921 26.2295 18.6801 27.6031 18.8846C23.7009 18.9055 19.8399 21.368 16.7338 23.4465C16.5729 23.5592 16.6389 23.8013 16.8328 23.8138C21.1063 24.0851 26.3945 23.0918 29.2119 19.5274C29.2861 19.4898 29.3645 19.4523 29.4387 19.4189C29.5419 19.3646 29.5542 19.2227 29.4965 19.1309C29.4965 19.1267 29.5006 19.1267 29.5047 19.1226C30.8454 19.2519 32.1901 19.3062 33.5307 19.2853C29.5419 20.7169 24.8476 23.6469 23.9401 27.7496C23.9113 27.8832 24.0309 28.0376 24.1753 27.9917C24.4393 27.9041 24.7074 27.8164 24.9796 27.7288C25.1158 27.6829 25.2519 27.6411 25.3921 27.5952C27.8919 26.7939 30.7175 25.9299 32.8336 24.3856H32.8377C32.9202 24.3272 32.9945 24.2688 33.0729 24.2103C33.3946 23.9599 33.6999 23.697 33.9804 23.409C34.0299 23.3631 34.0794 23.313 34.133 23.2587C35.1312 22.1944 35.8325 20.8672 36.0346 19.1601C36.6863 19.1059 37.3381 19.0307 37.9857 18.9389H37.9981C38.6498 19.0307 39.3057 19.1059 39.9616 19.1601C40.1431 20.6543 40.7 21.8605 41.5085 22.8497C41.5085 22.8497 41.5098 22.8525 41.5126 22.858C41.9168 23.3464 42.3665 23.7763 42.8697 24.1686C45.0188 25.8506 47.9888 26.7605 50.6082 27.5952H50.6123C50.7484 27.6411 50.8845 27.687 51.0207 27.7288C51.2929 27.8164 51.561 27.9041 51.8209 27.9917C51.9653 28.0376 52.0849 27.8832 52.056 27.7496C51.1485 23.6469 46.4584 20.7169 42.4696 19.2853C43.8102 19.3062 45.1508 19.2519 46.4914 19.1226C46.4956 19.1226 46.4997 19.1226 46.4997 19.1309C46.4419 19.2227 46.4584 19.3646 46.5616 19.4189C46.6358 19.4523 46.7142 19.4898 46.7884 19.5274C49.6017 23.0918 54.894 24.0851 59.1675 23.8138C59.3614 23.8013 59.4233 23.5592 59.2624 23.4465C56.1563 21.368 52.2953 18.9055 48.3931 18.8846C49.7667 18.6801 51.1279 18.3921 52.4644 18.0249C52.4933 18.0541 52.5263 18.0749 52.5593 18.1C52.5634 18.1835 52.6088 18.2628 52.7078 18.2753C52.7449 18.2836 52.782 18.2878 52.8233 18.292C56.4244 20.8839 61.7209 20.2244 65.619 18.7678C65.8252 18.6885 65.817 18.4255 65.619 18.3462C61.9931 16.9105 58.1858 16.6016 54.4485 17.4155C56.2677 16.802 58.0455 16.0382 59.7326 15.1199C59.7326 15.145 59.745 15.1659 59.7574 15.1867H59.7533C59.6336 15.1867 59.6378 15.3662 59.7533 15.3704C64.6744 15.8337 69.4387 14.2685 73.2874 11.1549C73.44 11.0339 73.2667 10.8419 73.1182 10.8627C70.7134 11.205 68.193 11.3719 65.8294 11.973C64.7899 12.2401 63.7999 12.6867 62.8346 13.2C64.0721 12.3277 65.2519 11.3719 66.3491 10.3202C66.3945 10.341 66.444 10.341 66.4894 10.3243C66.4976 10.3202 66.5017 10.3285 66.51 10.3243C69.678 9.24334 72.1942 6.76832 73.6586 3.77158C73.6916 3.71315 73.7205 3.65055 73.7452 3.58794V3.57959C73.8277 3.40847 73.9061 3.24569 73.9803 3.0704C74.0587 2.8951 73.8896 2.66972 73.704 2.79493ZM40.4277 16.539C40.4277 16.539 40.4277 16.5307 40.4277 16.5265V16.539Z" fill="#FFC700"/>
<path d="M73.704 2.79493C70.9196 4.53538 66.5017 6.36347 66.2666 10.1824C66.2625 10.2033 66.2749 10.2158 66.279 10.2325C64.5713 11.6182 62.7686 12.8494 60.8959 13.9137C63.4493 11.4262 64.9384 8.154 65.1529 4.51451C65.1653 4.34338 64.9631 4.30582 64.8559 4.39347C62.0385 6.68067 59.3325 10.8586 59.5594 14.6441C58.0001 15.4538 56.3955 16.1509 54.7497 16.7268C57.8186 14.8361 59.5346 11.2384 59.151 7.4862C59.1263 7.26917 58.8416 7.21491 58.7674 7.43194C58.0455 9.56472 56.0944 10.9713 54.8157 12.7493C53.8009 14.1558 53.0914 15.6542 52.7078 17.332C52.6253 17.3654 52.5469 17.403 52.4644 17.4322C52.4438 17.4447 52.4273 17.4572 52.4108 17.4698C51.0495 17.8454 49.6677 18.1459 48.2776 18.3546C48.5168 18.2169 48.7519 18.0624 48.9747 17.8955C49.5811 17.4405 50.1256 16.8854 50.604 16.2594C52.2252 14.1642 53.145 11.301 53.4255 8.94283C53.442 8.79258 53.2234 8.71328 53.1327 8.81762C51.8085 10.3202 50.2328 11.3803 49.1851 13.1333C48.1951 14.7819 47.5804 16.6308 47.1679 18.5048C45.2993 18.726 43.4018 18.7887 41.4961 18.6968C46.1821 16.9856 47.6382 11.5222 47.9269 6.82675C47.9352 6.66398 47.7124 6.57215 47.6052 6.69737C47.4196 6.90605 47.2298 7.11474 47.0442 7.32342C47.0359 7.33177 47.0277 7.34012 47.0194 7.35264C46.1161 8.35434 45.1838 9.34351 44.2763 10.3494C44.0701 10.5748 43.8721 10.8001 43.6699 11.0297C42.9893 11.806 42.3252 12.5948 41.7106 13.4129C41.4136 13.8052 41.1083 14.2602 40.8361 14.7485C40.7907 14.8278 40.7495 14.9029 40.7123 14.9822C40.5556 15.2827 40.4153 15.5916 40.304 15.9088C40.2627 16.0173 40.2256 16.1258 40.1967 16.2343C40.0235 16.8103 39.9451 17.3988 40.0235 17.9664C40.0482 18.1709 40.0936 18.3671 40.1637 18.5633C40.1637 18.5758 40.172 18.5883 40.1761 18.6008C40.1307 18.5967 40.0895 18.5925 40.0441 18.5883C39.3676 18.5299 38.687 18.4464 38.0105 18.3421H38.0022C37.3216 18.4422 36.6368 18.5257 35.9562 18.5883C35.9108 18.5925 35.8696 18.5967 35.8242 18.6008C35.8283 18.5883 35.8325 18.5758 35.8366 18.5633C35.9067 18.3671 35.9521 18.1709 35.9768 17.9664C36.0717 17.2652 35.9273 16.5265 35.6592 15.8211C35.6303 15.7335 35.5932 15.65 35.5561 15.5624C35.453 15.3119 35.3292 15.0657 35.2013 14.8278C35.156 14.7401 35.1065 14.6525 35.0528 14.5648C34.8095 14.1475 34.5455 13.7551 34.2856 13.4129C33.6875 12.6157 33.0481 11.8477 32.3881 11.0965C32.3881 11.0923 32.384 11.0923 32.384 11.0923C32.1819 10.8627 31.9797 10.6374 31.7776 10.412C30.8536 9.38525 29.9007 8.3752 28.9809 7.35264C28.9726 7.34012 28.9644 7.33177 28.9561 7.32342C28.7664 7.11474 28.5766 6.90605 28.391 6.69737C28.2837 6.57215 28.061 6.66398 28.0692 6.82675C28.3456 11.3511 29.7069 16.5849 33.9969 18.4923C34.1371 18.5549 34.2856 18.6175 34.4382 18.6718C34.4589 18.6801 34.4795 18.6885 34.5001 18.6968C34.4754 18.6968 34.4547 18.701 34.43 18.701C34.2732 18.7094 34.1124 18.7135 33.9556 18.7177C32.2314 18.7761 30.5195 18.7052 28.8324 18.5048C28.4157 16.6308 27.8011 14.7819 26.8111 13.1333C25.7634 11.3803 24.1876 10.3202 22.8635 8.81762C22.7728 8.71328 22.5541 8.79258 22.5706 8.94283C22.8511 11.3093 23.7793 14.1767 25.4045 16.2761H25.4086C25.883 16.898 26.4234 17.4447 27.0256 17.8913C27.2484 18.0624 27.4794 18.2169 27.7227 18.3546C26.3285 18.1459 24.9466 17.8454 23.5895 17.4698C23.573 17.4572 23.5565 17.4447 23.5359 17.4322C23.4534 17.403 23.375 17.3654 23.2925 17.332C22.9048 15.6542 22.1994 14.1558 21.1846 12.7493C19.9018 10.9713 17.9548 9.56472 17.2329 7.43194C17.1587 7.21491 16.874 7.26917 16.8493 7.4862C16.4615 11.2384 18.1775 14.8361 21.2465 16.7268C19.6048 16.1509 17.996 15.4538 16.4368 14.6441C16.6678 10.8586 13.9577 6.68067 11.1403 4.39347C11.0331 4.30582 10.8309 4.34338 10.8433 4.51451C11.0578 8.154 12.5469 11.4262 15.1044 13.9137C13.2317 12.8494 11.4291 11.6182 9.71718 10.2325C9.71718 10.2158 9.73368 10.2033 9.72956 10.1824C9.49856 6.36347 5.07657 4.53538 2.29633 2.79493C2.10658 2.66972 1.94158 2.8951 2.01996 3.0704C2.09421 3.24569 2.17258 3.41682 2.25508 3.58794C2.27983 3.65055 2.30871 3.70898 2.33758 3.76741C3.80195 6.76832 6.31819 9.24334 9.48618 10.3243C9.49443 10.3285 9.49856 10.3202 9.50681 10.3243C9.55218 10.341 9.60168 10.341 9.64706 10.3202C10.7443 11.3719 11.9241 12.3277 13.1615 13.2C12.2004 12.6867 11.2063 12.2401 10.1668 11.973C7.80319 11.3719 5.28282 11.205 2.87796 10.8627C2.73358 10.8419 2.55621 11.0339 2.70883 11.1549C6.55744 14.2685 11.3218 15.8337 16.2429 15.3704C16.3584 15.3704 16.3667 15.1867 16.247 15.1867H16.2429C16.2429 15.1867 16.2635 15.145 16.2677 15.1199C17.9548 16.0382 19.7285 16.802 21.5518 17.4155C17.8104 16.6016 14.003 16.9105 10.3813 18.3462C10.1833 18.4255 10.1709 18.6885 10.3772 18.7678C14.2753 20.2244 19.5718 20.8839 23.177 18.292C23.2183 18.292 23.2554 18.2836 23.2925 18.2753C23.3915 18.2628 23.4369 18.1835 23.4369 18.1C23.4699 18.0749 23.5029 18.0541 23.5318 18.0249C24.8724 18.3921 26.2295 18.6801 27.6031 18.8846C23.7009 18.9055 19.8399 21.368 16.7338 23.4465C16.5729 23.5592 16.6389 23.8013 16.8328 23.8138C21.1063 24.0851 26.3945 23.0918 29.2119 19.5274C29.2861 19.4898 29.3645 19.4523 29.4387 19.4189C29.5419 19.3646 29.5542 19.2227 29.4965 19.1309C29.4965 19.1267 29.5006 19.1267 29.5047 19.1226C30.8454 19.2519 32.1901 19.3062 33.5307 19.2853C29.5419 20.7169 24.8476 23.6469 23.9401 27.7496C23.9113 27.8832 24.0309 28.0376 24.1753 27.9917C24.4393 27.9041 24.7074 27.8164 24.9796 27.7288C25.1158 27.6829 25.2519 27.6411 25.3921 27.5952C27.8919 26.7939 30.7175 25.9299 32.8336 24.3856H32.8377C32.9202 24.3272 32.9945 24.2688 33.0729 24.2103C33.3946 23.9599 33.6999 23.697 33.9804 23.409C34.0299 23.3631 34.0794 23.313 34.133 23.2587C35.1312 22.1944 35.8325 20.8672 36.0346 19.1601C36.6863 19.1059 37.3381 19.0307 37.9857 18.9389H37.9981C38.6498 19.0307 39.3057 19.1059 39.9616 19.1601C40.1431 20.6543 40.7 21.8605 41.5085 22.8497C41.5085 22.8497 41.5098 22.8525 41.5126 22.858C41.9168 23.3464 42.3665 23.7763 42.8697 24.1686C45.0188 25.8506 47.9888 26.7605 50.6082 27.5952H50.6123C50.7484 27.6411 50.8845 27.687 51.0207 27.7288C51.2929 27.8164 51.561 27.9041 51.8209 27.9917C51.9653 28.0376 52.0849 27.8832 52.056 27.7496C51.1485 23.6469 46.4584 20.7169 42.4696 19.2853C43.8102 19.3062 45.1508 19.2519 46.4914 19.1226C46.4956 19.1226 46.4997 19.1226 46.4997 19.1309C46.4419 19.2227 46.4584 19.3646 46.5616 19.4189C46.6358 19.4523 46.7142 19.4898 46.7884 19.5274C49.6017 23.0918 54.894 24.0851 59.1675 23.8138C59.3614 23.8013 59.4233 23.5592 59.2624 23.4465C56.1563 21.368 52.2953 18.9055 48.3931 18.8846C49.7667 18.6801 51.1279 18.3921 52.4644 18.0249C52.4933 18.0541 52.5263 18.0749 52.5593 18.1C52.5634 18.1835 52.6088 18.2628 52.7078 18.2753C52.7449 18.2836 52.782 18.2878 52.8233 18.292C56.4244 20.8839 61.7209 20.2244 65.619 18.7678C65.8252 18.6885 65.817 18.4255 65.619 18.3462C61.9931 16.9105 58.1858 16.6016 54.4485 17.4155C56.2677 16.802 58.0455 16.0382 59.7326 15.1199C59.7326 15.145 59.745 15.1659 59.7574 15.1867H59.7533C59.6336 15.1867 59.6378 15.3662 59.7533 15.3704C64.6744 15.8337 69.4387 14.2685 73.2874 11.1549C73.44 11.0339 73.2667 10.8419 73.1182 10.8627C70.7134 11.205 68.193 11.3719 65.8294 11.973C64.7899 12.2401 63.7999 12.6867 62.8346 13.2C64.0721 12.3277 65.2519 11.3719 66.3491 10.3202C66.3945 10.341 66.444 10.341 66.4894 10.3243C66.4976 10.3202 66.5017 10.3285 66.51 10.3243C69.678 9.24334 72.1942 6.76832 73.6586 3.77158C73.6916 3.71315 73.7205 3.65055 73.7452 3.58794V3.57959C73.8277 3.40847 73.9061 3.24569 73.9803 3.0704C74.0587 2.8951 73.8896 2.66972 73.704 2.79493ZM40.4277 16.539C40.4277 16.539 40.4277 16.5307 40.4277 16.5265V16.539Z" stroke="black" stroke-width="4" mask="url(#path-1-outside-1_0_3094)"/>
</svg>
