<svg width="32" height="32" viewBox="0 0 32 32" fill="none" xmlns="http://www.w3.org/2000/svg">
<path fill-rule="evenodd" clip-rule="evenodd" d="M5.16028 13.4741L4.28979 3.00049L11.6526 6.74302C12.9983 6.19409 14.4708 5.8916 16.0139 5.8916C17.5839 5.8916 19.0807 6.20474 20.4454 6.77197L27.8613 3.00247L26.9673 13.7585C27.357 14.9165 27.5682 16.1566 27.5682 17.446C27.5682 23.8272 22.3952 29.0003 16.0139 29.0003C9.63257 29.0003 4.45951 23.8272 4.45951 17.446C4.45951 16.0504 4.70692 14.7126 5.16028 13.4741Z" fill="#FFDD55"/>
<path fill-rule="evenodd" clip-rule="evenodd" d="M5.16028 13.4741L4.28979 3.00049L11.6526 6.74302C12.9983 6.19409 14.4708 5.8916 16.0139 5.8916C17.5839 5.8916 19.0807 6.20474 20.4454 6.77197L27.8613 3.00247L26.9673 13.7585C27.357 14.9165 27.5682 16.1566 27.5682 17.446C27.5682 23.8272 22.3952 29.0003 16.0139 29.0003C9.63257 29.0003 4.45951 23.8272 4.45951 17.446C4.45951 16.0504 4.70692 14.7126 5.16028 13.4741Z" fill="url(#paint0_linear_1_2683)"/>
<path d="M5.96168 5.2186L6.44263 11.0054L10.4971 7.52396L5.96168 5.2186Z" fill="#FFAA01"/>
<path d="M26.0395 5.2186L25.5586 11.0054L21.5041 7.52396L26.0395 5.2186Z" fill="#FFAA01"/>
<circle cx="16.1423" cy="17.5764" r="9.19956" fill="#FFAA01"/>
<circle cx="16.1423" cy="17.5764" r="9.19956" fill="url(#paint1_linear_1_2683)"/>
<circle cx="16.1423" cy="17.5764" r="9.19956" stroke="#FCF001" stroke-width="0.508"/>
<defs>
<linearGradient id="paint0_linear_1_2683" x1="3.62511" y1="3.03101" x2="31.1614" y2="6.2345" gradientUnits="userSpaceOnUse">
<stop stop-color="#FAFF00"/>
<stop offset="1" stop-color="#FFB800"/>
</linearGradient>
<linearGradient id="paint1_linear_1_2683" x1="25.4936" y1="0.175488" x2="24.2971" y2="28.1191" gradientUnits="userSpaceOnUse">
<stop stop-color="#FAFF00"/>
<stop offset="1" stop-color="#FF8A00"/>
</linearGradient>
</defs>
</svg>
