<svg width="32" height="32" viewBox="0 0 32 32" fill="none" xmlns="http://www.w3.org/2000/svg">
<rect width="32" height="32" fill="white"/>
<path fill-rule="evenodd" clip-rule="evenodd" d="M1.46294 15.4778C1.69559 19.3654 1.92823 23.253 1.92287 27.1406V27.1306C1.90287 28.2906 2.59287 29.4206 3.63287 29.9606C4.352 30.3656 5.15887 30.3757 5.9616 30.3857C6.30861 30.3901 6.65484 30.3944 6.99287 30.4306C7.36696 30.452 7.74335 30.4736 8.12176 30.4954C14.2983 30.8503 21.0152 31.2362 27.0929 31.0006C28.5229 30.9806 29.8529 30.0706 30.4229 28.8206C30.8429 28.0321 30.7796 27.048 30.7213 26.1406C30.7004 25.8167 30.6802 25.5026 30.6829 25.2106C30.3229 18.5106 30.4029 11.8106 30.6829 5.11063C30.7729 3.43063 29.4929 1.77063 27.8129 1.42063C27.352 1.31056 26.5787 1.29987 25.9293 1.2909C25.6348 1.28683 25.3657 1.28311 25.1629 1.27063C18.4629 1.10063 11.7629 0.990629 5.06287 1.00063C2.76287 0.960629 0.822873 3.12063 1.01287 5.36063C1.05932 8.73302 1.26113 12.1054 1.46294 15.4778ZM3.75287 29.7306C2.78287 29.2706 2.12287 28.2206 2.12287 27.1406L2.13287 27.1306C2.12149 23.3168 2.34988 19.5029 2.57827 15.6891C2.75111 12.8029 2.92395 9.91678 2.99287 7.03063C2.99902 6.90454 3.00328 6.66876 3.00827 6.39277C3.01949 5.77132 3.0344 4.94607 3.08287 4.71063C3.27287 3.80063 4.15287 3.10063 5.07287 3.13063C11.7729 3.15063 18.4729 3.03063 25.1729 2.86063C25.3191 2.86063 25.5869 2.8529 25.8936 2.84404C26.5096 2.82625 27.2825 2.80393 27.5429 2.83063C28.6529 2.98063 29.5429 3.95063 29.5929 5.11063C29.9229 12.3706 29.9129 19.6406 29.5129 26.8906C29.5029 27.4406 29.4029 27.8106 29.1829 28.2006C28.7529 28.9606 27.9029 29.3906 27.0929 29.3506C22.6229 29.2206 18.1629 29.2706 13.6929 29.5506L6.99287 29.9206C6.71343 29.9232 6.42863 29.9432 6.14264 29.9633C5.3233 30.0208 4.49413 30.079 3.75287 29.7306ZM24.7233 14.6406C23.5433 15.3206 23.5433 17.0106 24.7233 17.7006H24.7133C25.5633 18.1806 25.8533 19.2606 25.3633 20.1106L24.1233 22.2506C23.6433 23.0906 22.5633 23.3806 21.7133 22.8906H21.7033C20.5233 22.2106 19.0533 23.0606 19.0533 24.4206C19.0533 25.4006 18.2633 26.1906 17.2933 26.1906H14.8233C13.8433 26.1906 13.0533 25.4006 13.0533 24.4206C13.0533 23.1206 11.6633 22.2006 10.4033 22.9006C9.56327 23.3806 8.48327 23.0906 7.99327 22.2506L6.75327 20.1106C6.27327 19.2606 6.56327 18.1806 7.40327 17.6906C8.57327 17.0106 8.57327 15.3206 7.40327 14.6306C6.55327 14.1406 6.27327 13.0606 6.75327 12.2206L7.99327 10.0806C8.48327 9.23063 9.56327 8.94063 10.4033 9.43063C11.6633 10.1306 13.0533 9.20063 13.0533 7.90063C13.0533 6.93062 13.8433 6.14062 14.8233 6.14062H17.2933C18.2633 6.14062 19.0533 6.93062 19.0533 7.90063C19.0533 9.29063 20.5333 10.1106 21.7033 9.43063H21.7133C22.5633 8.94063 23.6433 9.23063 24.1233 10.0806L25.3633 12.2206C25.8533 13.0606 25.5633 14.1406 24.7233 14.6406ZM12.5233 16.1606C12.0133 18.0806 13.8733 20.3206 16.0733 20.2306C18.3533 20.2406 19.3133 18.0506 19.1733 16.1606C19.2533 10.5206 13.5833 11.6106 12.5233 16.1606Z" fill="black"/>
</svg>
