<svg width="32" height="32" viewBox="0 0 32 32" fill="none" xmlns="http://www.w3.org/2000/svg">
<rect width="32" height="32" fill="white"/>
<path fill-rule="evenodd" clip-rule="evenodd" d="M30.5438 8.86432C30.2743 8.9737 30.0048 9.06354 29.7235 9.14362C29.7782 11.0206 29.8094 12.8975 29.8133 14.7745C29.8251 18.8135 29.7196 22.8487 29.493 26.8839C29.4618 28.4835 28.3133 29.4034 27.0829 29.3448C25.9227 29.3135 24.8133 29.294 23.7352 29.294L23.9852 31.0538L25.2274 31.0499C25.9813 31.044 26.6141 31.0342 27.0829 31.0147C28.5243 30.9932 29.8524 30.0831 30.4227 28.8233C30.6844 28.3331 30.7508 27.6983 30.7313 26.5889C30.7235 26.0225 30.6923 25.3311 30.6532 24.4717C30.5204 21.6319 30.3055 16.96 30.5438 8.86432ZM5.05553 3.13385C10.6219 3.15338 16.1923 3.07331 21.7626 2.9444C21.8954 2.35456 22.0633 1.77448 22.2626 1.20417C18.6805 1.12213 15.0907 1.05573 11.5048 1.02253C9.35241 1.00299 7.20397 0.995181 5.05553 1.00299C2.76256 0.963931 0.825064 3.12409 1.01256 5.36432C1.04772 7.8487 1.16491 10.3331 1.30553 12.8174C1.57116 17.5928 1.91881 22.3663 1.91491 27.1339C1.89538 28.3038 2.58288 29.4346 3.62194 29.9737C4.04381 30.2042 5.73522 30.3936 8.04382 30.5538L8.19225 29.8643C5.87194 29.9932 4.38366 30.0245 3.74303 29.7237C2.77428 29.2745 2.12194 28.2237 2.11413 27.1339C2.11022 26.0948 2.2196 23.1026 2.36803 19.6299C2.49303 16.7139 2.64538 13.4581 2.77428 10.7354C2.93835 7.33112 3.06725 4.75885 3.07506 4.7237C3.25475 3.80378 4.13366 3.10456 5.05553 3.13385ZM27.8055 1.42292C27.6844 1.39557 27.5399 1.37409 27.3837 1.35651C27.0946 1.32526 26.7626 1.30963 26.4344 1.30378C26.6024 1.80378 26.7548 2.31354 26.8641 2.82331C28.4227 2.77448 29.2743 3.62409 29.5243 4.70417L30.0165 4.85846L30.6727 5.08307C30.7548 3.42292 29.4735 1.77448 27.8055 1.42292ZM29.9423 6.95221C29.5829 7.11432 29.036 7.29596 28.3876 7.46198C27.4774 7.69245 26.3758 7.88776 25.3133 7.95221C25.2665 8.74323 25.161 9.53034 24.9969 10.3077C24.8329 11.0733 24.6102 11.8292 24.3329 12.5635C23.7626 11.0733 23.4344 9.51276 23.3446 7.94245C21.7743 7.8526 20.2118 7.52252 18.7235 6.95221C20.204 6.39362 21.7626 6.06354 23.3329 5.9737C23.454 4.2237 23.7821 2.81354 24.3329 1.34284C24.6415 2.15729 24.8719 2.96784 25.036 3.77643C25.1844 4.5069 25.2782 5.23542 25.3251 5.96198C27.0048 6.06354 28.7548 6.4737 29.9423 6.95221ZM14.9813 30.8839C17.7899 30.9757 20.6532 31.0303 22.9735 31.0421C22.0438 24.8956 21.8016 20.753 21.6258 17.7432C21.4305 14.4424 21.3173 12.5069 20.4657 10.7921C20.2235 10.3038 20.1962 10.0655 20.1493 9.65143C20.1141 9.36042 20.0712 8.98346 19.9344 8.37213C19.3055 9.58502 19.0282 9.89752 18.8485 10.0967C18.6376 10.3311 18.5712 10.4073 18.2352 11.6319C18.0321 11.6514 14.6532 11.9229 14.5321 11.7628C14.2899 11.4444 14.1844 10.9796 13.9774 10.087C13.8876 9.68854 13.7743 9.20612 13.6219 8.61237C12.9188 9.73932 12.4501 10.4288 12.1337 10.8956C11.8173 11.3643 11.6493 11.6065 11.5555 11.8428C11.1376 14.7198 11.2001 15.9639 11.2587 17.1378C11.3641 19.1612 11.454 20.9757 9.04382 30.6124C10.829 30.7237 12.8915 30.8155 14.9813 30.8839Z" fill="black"/>
</svg>
