<svg width="32" height="32" viewBox="0 0 32 32" fill="none" xmlns="http://www.w3.org/2000/svg">
<path d="M10.6666 9.33329C6.98469 9.33329 3.99992 12.3181 3.99992 16C3.99992 19.6818 6.98469 22.6666 10.6666 22.6666H21.3333C25.0151 22.6666 27.9999 19.6818 27.9999 16C27.9999 12.3181 25.0151 9.33329 21.3333 9.33329H10.6666ZM10.6666 6.66663H21.3333C26.4879 6.66663 30.6666 10.8453 30.6666 16C30.6666 21.1546 26.4879 25.3333 21.3333 25.3333H10.6666C5.51193 25.3333 1.33325 21.1546 1.33325 16C1.33325 10.8453 5.51193 6.66663 10.6666 6.66663ZM10.6666 20C8.45745 20 6.66659 18.2092 6.66659 16C6.66659 13.7908 8.45745 12 10.6666 12C12.8757 12 14.6666 13.7908 14.6666 16C14.6666 18.2092 12.8757 20 10.6666 20Z" fill="black"/>
</svg>
