<svg width="32" height="32" viewBox="0 0 32 32" fill="none" xmlns="http://www.w3.org/2000/svg">
<path d="M1.92287 27.1406C1.93287 19.8806 1.11287 12.6206 1.01287 5.36063C0.822873 3.12063 2.76287 0.960629 5.06287 1.00063C11.7629 0.990629 18.4629 1.10063 25.1629 1.27063C25.8129 1.31063 27.1429 1.26063 27.8129 1.42063C29.4929 1.77063 30.7729 3.43063 30.6829 5.11063C30.4029 11.8106 30.3229 18.5106 30.6829 25.2106C30.6729 26.3206 30.9929 27.7506 30.4229 28.8206C29.8529 30.0706 28.5229 30.9806 27.0929 31.0006C20.6429 31.2506 13.4729 30.8006 6.99287 30.4306C5.87287 30.3106 4.66287 30.5406 3.63287 29.9606C2.59287 29.4206 1.90287 28.2906 1.92287 27.1306V27.1406ZM2.12287 27.1406C2.12287 28.2206 2.78287 29.2706 3.75287 29.7306C4.75287 30.2006 5.91287 29.9306 6.99287 29.9206L13.6929 29.5506C18.1629 29.2706 22.6229 29.2206 27.0929 29.3506C27.9029 29.3906 28.7529 28.9606 29.1829 28.2006C29.4029 27.8106 29.5029 27.4406 29.5129 26.8906C29.9129 19.6406 29.9229 12.3706 29.5929 5.11063C29.5429 3.95063 28.6529 2.98063 27.5429 2.83063C27.1529 2.79063 25.6129 2.86063 25.1729 2.86063C18.4729 3.03063 11.7729 3.15063 5.07287 3.13063C4.15287 3.10063 3.27287 3.80063 3.08287 4.71063C3.01287 5.05063 3.01287 6.62063 2.99287 7.03063C2.83287 13.7306 2.11287 20.4306 2.13287 27.1306L2.12287 27.1406Z" fill="black"/>
<path d="M1.92287 27.1406C1.93287 19.8806 1.11287 12.6206 1.01287 5.36063C0.822873 3.12063 2.76287 0.960629 5.06287 1.00063C11.7629 0.990629 18.4629 1.10063 25.1629 1.27063C25.8129 1.31063 27.1429 1.26063 27.8129 1.42063C29.4929 1.77063 30.7729 3.43063 30.6829 5.11063C30.4029 11.8106 30.3229 18.5106 30.6829 25.2106C30.6729 26.3206 30.9929 27.7506 30.4229 28.8206C29.8529 30.0706 28.5229 30.9806 27.0929 31.0006C20.6429 31.2506 13.4729 30.8006 6.99287 30.4306C5.87287 30.3106 4.66287 30.5406 3.63287 29.9606C2.59287 29.4206 1.90287 28.2906 1.92287 27.1306V27.1406ZM2.12287 27.1406C2.12287 28.2206 2.78287 29.2706 3.75287 29.7306C4.75287 30.2006 5.91287 29.9306 6.99287 29.9206L13.6929 29.5506C18.1629 29.2706 22.6229 29.2206 27.0929 29.3506C27.9029 29.3906 28.7529 28.9606 29.1829 28.2006C29.4029 27.8106 29.5029 27.4406 29.5129 26.8906C29.9129 19.6406 29.9229 12.3706 29.5929 5.11063C29.5429 3.95063 28.6529 2.98063 27.5429 2.83063C27.1529 2.79063 25.6129 2.86063 25.1729 2.86063C18.4729 3.03063 11.7729 3.15063 5.07287 3.13063C4.15287 3.10063 3.27287 3.80063 3.08287 4.71063C3.01287 5.05063 3.01287 6.62063 2.99287 7.03063C2.83287 13.7306 2.11287 20.4306 2.13287 27.1306L2.12287 27.1406Z" fill="url(#paint0_linear_2_2510)"/>
<path fill-rule="evenodd" clip-rule="evenodd" d="M7.30803 13.973L6.62549 5.69446L12.4491 8.6558C13.5169 8.22646 14.6728 7.98427 15.8948 7.98427C17.1168 7.98427 18.3167 8.22646 19.3956 8.67781L25.2522 5.69446L24.5476 14.1932C24.8559 15.1069 25.021 16.0867 25.021 17.1105C25.021 22.1525 20.9368 26.2477 15.8838 26.2477C10.8308 26.2477 6.74658 22.1635 6.74658 17.1105C6.74658 16.0096 6.94474 14.9528 7.29702 13.973H7.30803Z" fill="#FFDD55"/>
<path fill-rule="evenodd" clip-rule="evenodd" d="M7.30827 13.973L6.62573 5.69446L12.4493 8.6558C13.5172 8.22646 14.6731 7.98427 15.895 7.98427C17.117 7.98427 18.317 8.22646 19.3958 8.67781L25.2524 5.69446L24.5479 14.1932C24.8561 15.1069 25.0213 16.0867 25.0213 17.1105C25.0213 22.1525 20.937 26.2477 15.884 26.2477C10.8311 26.2477 6.74683 22.1635 6.74683 17.1105C6.74683 16.0096 6.94498 14.9528 7.29726 13.973H7.30827Z" fill="url(#paint1_linear_2_2510)"/>
<path d="M7.2523 13.9721C6.82296 11.275 6.44867 7.71915 6.11841 5L6.80095 5.34127C8.54032 6.21096 10.9512 7.36687 12.6576 8.22555L12.2502 8.20353C13.4172 7.74116 14.6722 7.50998 15.9161 7.532C17.1601 7.57603 18.3931 7.86226 19.516 8.37967H19.2408C20.2315 7.92831 21.2333 7.47696 22.2241 7.00358L25.1745 5.55043L25.4387 5.41833C25.1855 8.12647 25.0203 11.8914 24.8552 14.0932C27.2551 20.0819 22.2241 27.1055 15.751 26.8192C9.36597 26.8633 4.57719 19.7406 7.24129 13.9611L7.2523 13.9721ZM7.36239 13.9831C5.53495 19.5755 9.92742 25.7514 15.773 25.6633C21.5526 25.8505 26.0441 19.7406 24.1947 14.2363C24.5359 11.396 24.8332 8.5448 25.0754 5.69355L25.3176 5.85868L22.4113 7.38889C21.4095 7.92831 20.4077 8.48976 19.4059 9.04019C18.294 8.59984 17.0941 8.39068 15.9051 8.43471C14.6942 8.44572 13.5052 8.70993 12.4154 9.19431C11.3696 8.6769 10.3457 8.11546 9.31093 7.58704L6.42665 6.06784L7.02112 5.66052C7.16423 8.10445 7.31836 11.5832 7.35138 13.9831H7.36239Z" fill="url(#paint2_linear_2_2510)"/>
<path d="M7.93262 7.45571L8.31792 12.0243L11.5214 9.27214L7.93262 7.4447V7.45571Z" fill="#FFAA01"/>
<path d="M23.8073 7.45571L23.422 12.0243L20.2185 9.27214L23.8073 7.4447V7.45571Z" fill="#FFAA01"/>
<g filter="url(#filter0_i_2_2510)">
<path d="M15.9811 24.4853C19.9938 24.4853 23.2468 21.2323 23.2468 17.2196C23.2468 13.2068 19.9938 9.95386 15.9811 9.95386C11.9683 9.95386 8.71533 13.2068 8.71533 17.2196C8.71533 21.2323 11.9683 24.4853 15.9811 24.4853Z" fill="url(#paint3_linear_2_2510)"/>
</g>
<defs>
<filter id="filter0_i_2_2510" x="8.71533" y="9.95386" width="14.5315" height="14.5315" filterUnits="userSpaceOnUse" color-interpolation-filters="sRGB">
<feFlood flood-opacity="0" result="BackgroundImageFix"/>
<feBlend mode="normal" in="SourceGraphic" in2="BackgroundImageFix" result="shape"/>
<feColorMatrix in="SourceAlpha" type="matrix" values="0 0 0 0 0 0 0 0 0 0 0 0 0 0 0 0 0 0 127 0" result="hardAlpha"/>
<feOffset/>
<feGaussianBlur stdDeviation="2.09165"/>
<feComposite in2="hardAlpha" operator="arithmetic" k2="-1" k3="1"/>
<feColorMatrix type="matrix" values="0 0 0 0 1 0 0 0 0 0.564706 0 0 0 0 0.00392157 0 0 0 1 0"/>
<feBlend mode="normal" in2="shape" result="effect1_innerShadow_2_2510"/>
</filter>
<linearGradient id="paint0_linear_2_2510" x1="30.6025" y1="-11.6407" x2="28.6796" y2="32.8035" gradientUnits="userSpaceOnUse">
<stop stop-color="#FAFF00"/>
<stop offset="1" stop-color="#FF8A00"/>
</linearGradient>
<linearGradient id="paint1_linear_2_2510" x1="24.6568" y1="25.3768" x2="5.94199" y2="5.01072" gradientUnits="userSpaceOnUse">
<stop stop-color="#FAFF00"/>
<stop offset="1" stop-color="#FFB800"/>
</linearGradient>
<linearGradient id="paint2_linear_2_2510" x1="25.3599" y1="-4.17493" x2="23.8022" y2="28.069" gradientUnits="userSpaceOnUse">
<stop stop-color="#FAFF00"/>
<stop offset="1" stop-color="#FF8A00"/>
</linearGradient>
<linearGradient id="paint3_linear_2_2510" x1="23.1682" y1="3.84578" x2="22.2486" y2="25.3224" gradientUnits="userSpaceOnUse">
<stop stop-color="#FAFF00"/>
<stop offset="1" stop-color="#FF8A00"/>
</linearGradient>
</defs>
</svg>
