<svg width="32" height="32" viewBox="0 0 32 32" fill="none" xmlns="http://www.w3.org/2000/svg">
<path fill-rule="evenodd" clip-rule="evenodd" d="M1.46294 15.4778C1.69559 19.3654 1.92823 23.253 1.92287 27.1406V27.1306C1.90287 28.2906 2.59287 29.4206 3.63287 29.9606C4.352 30.3656 5.15887 30.3757 5.9616 30.3857C6.30861 30.3901 6.65484 30.3944 6.99287 30.4306C7.36696 30.452 7.74335 30.4736 8.12176 30.4954C14.2983 30.8503 21.0152 31.2362 27.0929 31.0006C28.5229 30.9806 29.8529 30.0706 30.4229 28.8206C30.8429 28.0321 30.7796 27.048 30.7213 26.1406C30.7004 25.8167 30.6802 25.5026 30.6829 25.2106C30.3229 18.5106 30.4029 11.8106 30.6829 5.11063C30.7729 3.43063 29.4929 1.77063 27.8129 1.42063C27.352 1.31056 26.5787 1.29987 25.9293 1.2909C25.6348 1.28683 25.3657 1.28311 25.1629 1.27063C18.4629 1.10063 11.7629 0.990629 5.06287 1.00063C2.76287 0.960629 0.822873 3.12063 1.01287 5.36063C1.05932 8.73302 1.26113 12.1054 1.46294 15.4778ZM3.75287 29.7306C2.78287 29.2706 2.12287 28.2206 2.12287 27.1406L2.13287 27.1306C2.12149 23.3168 2.34988 19.5029 2.57827 15.6891C2.75111 12.8029 2.92395 9.91678 2.99287 7.03063C2.99902 6.90454 3.00328 6.66876 3.00827 6.39277C3.01949 5.77132 3.0344 4.94607 3.08287 4.71063C3.27287 3.80063 4.15287 3.10063 5.07287 3.13063C11.7729 3.15063 18.4729 3.03063 25.1729 2.86063C25.3191 2.86063 25.5869 2.8529 25.8936 2.84404C26.5096 2.82625 27.2825 2.80393 27.5429 2.83063C28.6529 2.98063 29.5429 3.95063 29.5929 5.11063C29.9229 12.3706 29.9129 19.6406 29.5129 26.8906C29.5029 27.4406 29.4029 27.8106 29.1829 28.2006C28.7529 28.9606 27.9029 29.3906 27.0929 29.3506C22.6229 29.2206 18.1629 29.2706 13.6929 29.5506L6.99287 29.9206C6.71343 29.9232 6.42863 29.9432 6.14264 29.9633C5.3233 30.0208 4.49413 30.079 3.75287 29.7306ZM16.077 5.5092C16.0753 5.50613 16.0737 5.50306 16.072 5.5H16.082C16.0804 5.50306 16.0787 5.50613 16.077 5.5092ZM19.1422 11.7404C18.5706 10.7003 17.9865 9.4577 17.4304 8.27466C16.9496 7.25187 16.4898 6.2736 16.077 5.5092C15.6679 6.25795 15.2088 7.21865 14.7267 8.22735C14.1649 9.40264 13.5721 10.6431 12.991 11.6894C12.4699 11.7272 11.6774 11.7848 10.7821 11.85C8.59094 12.0094 5.78395 12.2137 4.83203 12.2812L6.44203 13.8312L10.59 17.8132C10.4626 18.5924 10.258 19.8403 10.0495 21.1117C9.75727 22.8942 9.45744 24.7229 9.35203 25.3712L10.972 24.4212L16.1046 21.397L21.452 23.8912L21.952 24.1212L21.882 23.5712L21.1672 17.7393L26.4539 13.7612L28.0039 12.3912C27.3597 12.3391 25.611 12.2129 23.7936 12.0818C21.957 11.9493 20.0502 11.8117 19.1422 11.7404ZM16.062 5.72244C15.5387 6.90187 15.1063 8.34173 14.6959 9.70832C14.3657 10.808 14.0497 11.8603 13.712 12.6912L13.392 12.7612L9.14526 13.6925L12.262 16.7812L12.622 17.1412L12.532 17.6212L11.7372 22.0578L15.782 20.1712L16.092 20.0212L16.342 20.1712L21.1346 22.9951L19.932 17.5612L19.872 17.2812L20.102 17.0312L23.2443 13.6602L18.742 12.7112L18.452 12.6512C18.0975 11.8013 17.7637 10.7219 17.4167 9.59999C17.0029 8.26217 16.5705 6.86393 16.062 5.72244Z" fill="black"/>
</svg>
