<svg width="32" height="32" viewBox="0 0 32 32" fill="none" xmlns="http://www.w3.org/2000/svg">
<rect width="32" height="32" fill="white"/>
<path fill-rule="evenodd" clip-rule="evenodd" d="M30.6846 25.213C30.3252 18.5119 30.3955 11.8126 30.6729 5.11147C30.7627 3.43178 29.4932 1.77163 27.8135 1.42202C27.3643 1.31459 26.6104 1.30288 25.9737 1.29311H25.9385C25.6416 1.2892 25.3682 1.2853 25.1651 1.27163C18.4619 1.1017 11.7627 0.982564 5.06351 1.00209C4.51273 0.992329 3.98539 1.10952 3.50101 1.32045C3.17289 1.46499 2.86429 1.65444 2.58695 1.87709C1.55179 2.70327 0.899449 4.01577 1.01273 5.3517C1.0557 8.26186 1.21195 11.172 1.38382 14.0822L1.50492 16.1349L1.62211 18.3224C1.73148 20.1681 1.82132 22.0158 1.87211 23.8595C1.90336 24.9513 1.91898 26.0431 1.91507 27.133C1.90336 27.8087 2.12992 28.4669 2.52445 29.0099C2.80961 29.4064 3.18461 29.7404 3.62211 29.9728C4.33304 30.3673 5.12992 30.379 5.92679 30.3908C6.28226 30.3966 6.63773 30.4025 6.98539 30.4415C13.2354 30.7931 20.1338 31.2326 26.4034 31.0314C25.7119 30.5216 25.0635 29.9415 24.4541 29.2931L22.7666 29.2833C21.9034 29.2814 21.0401 29.2892 20.1768 29.3029C18.0127 29.338 15.8487 29.4201 13.6846 29.5529L6.98539 29.9123C6.70804 29.9142 6.42679 29.9337 6.14164 29.9533C5.32132 30.0119 4.48539 30.0705 3.7432 29.7228C2.77445 29.2716 2.12211 28.2228 2.11429 27.133C2.10257 24.9025 2.18461 22.672 2.29398 20.4415C2.34086 19.4884 2.39554 18.5451 2.45023 17.59L2.46195 17.3615L2.5557 15.8185C2.62601 14.6095 2.70023 13.4005 2.76273 12.1915L2.82132 11.1759C2.85648 10.508 2.88382 9.84194 2.90336 9.17202C2.94242 8.46303 2.96195 7.74233 2.98539 7.03139L3.00101 6.40444V6.26577C3.01273 5.66616 3.02836 4.93178 3.07523 4.71303C3.25492 3.80288 4.14554 3.1017 5.06351 3.13295H9.03226L10.4619 3.12514L11.8838 3.11147C13.4619 3.09194 15.044 3.07241 16.6221 3.04311L17.0674 3.03725L19.4346 3.00209C21.3448 2.96303 23.2549 2.92202 25.1651 2.87319C25.6143 2.86147 27.1455 2.79311 27.5323 2.83217C28.208 2.92397 28.8018 3.32436 29.1768 3.88491C29.4151 4.24428 29.5635 4.67006 29.583 5.12319C29.669 7.05483 29.7315 8.98842 29.7705 10.922C29.8643 15.6369 29.8135 20.3576 29.5948 25.0724C29.6846 25.172 29.7744 25.2716 29.8643 25.383C30.1846 25.7521 30.4737 26.1115 30.7432 26.4728C30.7119 26.0314 30.6846 25.6115 30.6846 25.213ZM14.4268 24.9806L14.6026 24.9923C16.3838 24.9923 17.9854 24.4025 19.3057 23.422C19.9346 22.963 20.5049 22.4025 21.0049 21.7833L21.2744 21.9533C21.9229 22.4708 22.3526 23.1955 22.7823 23.9201C23.0987 24.4591 23.4151 24.9982 23.8252 25.4533C24.2041 25.9357 24.5987 26.3888 25.0166 26.8068C25.3526 27.1408 25.708 27.4533 26.083 27.7423C26.5127 28.0939 26.9854 28.3927 27.4854 28.672C27.9619 28.9337 28.4619 29.1623 29.0049 29.3634L29.1651 29.2033C28.9619 28.6525 28.7354 28.1525 28.4541 27.672C28.2237 27.2638 27.9737 26.8732 27.6924 26.5138L27.5401 26.3009C27.3213 26.006 27.0869 25.7267 26.8526 25.4533C26.1104 24.5529 25.1299 23.924 24.1534 23.299C23.2979 22.7501 22.4463 22.2013 21.7549 21.4728C21.6534 21.3537 21.5752 21.2423 21.5127 21.1134C22.6651 19.3927 23.294 17.2736 23.2041 15.1837C23.3018 9.43374 19.2744 5.63295 14.7744 5.63295C12.4854 5.63295 10.0948 6.61342 8.05179 8.81264C3.47367 13.5138 4.65336 20.6935 9.53617 23.6408C10.1651 24.0314 10.8643 24.3458 11.6221 24.5744C12.4815 24.8322 13.419 24.9767 14.4268 24.9806ZM18.4932 13.5001C18.7432 15.2501 18.7354 17.6193 19.0948 21.4806L19.2666 21.3771C19.4424 21.2716 19.6143 21.1662 19.7823 21.0431C20.1924 20.7521 20.5752 20.4337 20.9229 20.0724C22.1924 18.8126 22.9854 17.1427 23.0127 15.172C23.0518 10.6037 18.5518 7.64272 14.4541 7.39272C14.1729 7.36342 13.9034 7.36342 13.6455 7.36342C6.58304 7.36342 3.86429 15.8029 9.02445 20.6134C9.33304 20.922 9.66507 21.1837 10.0166 21.4123C11.0948 15.8615 9.99711 17.0607 10.7276 12.0412C10.8057 11.8615 10.9346 11.674 11.1729 11.3224L11.2393 11.2248C11.4854 10.8556 11.8487 10.3185 12.376 9.47085C12.7666 11.0119 12.8174 11.6212 13.1065 11.9806C13.208 12.1115 15.8877 11.9005 16.0557 11.881C16.3213 10.8986 16.376 10.838 16.544 10.6505C16.6885 10.4923 16.9151 10.2443 17.4151 9.28139C17.5244 9.76967 17.5596 10.0724 17.5869 10.3048C17.626 10.633 17.6494 10.8244 17.8369 11.2111C18.1729 11.8927 18.3643 12.6173 18.4932 13.5001Z" fill="black"/>
</svg>
