<svg width="32" height="32" viewBox="0 0 32 32" fill="none" xmlns="http://www.w3.org/2000/svg">
<path d="M21.3334 9.33329C25.0153 9.33329 28.0001 12.3181 28.0001 16C28.0001 19.6818 25.0153 22.6666 21.3334 22.6666H10.6667C6.98488 22.6666 4.00008 19.6818 4.00008 16C4.00008 12.3181 6.98488 9.33329 10.6667 9.33329H21.3334ZM21.3334 6.66663H10.6667C5.51208 6.66663 1.33341 10.8453 1.33341 16C1.33341 21.1546 5.51208 25.3333 10.6667 25.3333H21.3334C26.4881 25.3333 30.6667 21.1546 30.6667 16C30.6667 10.8453 26.4881 6.66663 21.3334 6.66663ZM21.3334 20C23.5425 20 25.3334 18.2092 25.3334 16C25.3334 13.7908 23.5425 12 21.3334 12C19.1243 12 17.3334 13.7908 17.3334 16C17.3334 18.2092 19.1243 20 21.3334 20Z" fill="black"/>
</svg>
