<svg width="33" height="32" viewBox="0 0 33 32" fill="none" xmlns="http://www.w3.org/2000/svg">
<path d="M10.5 26.2L14.95 18.51L10.54 10.9C10.54 10.9 10.54 10.86 10.54 10.83C10.58 10.41 10.65 9.96 10.72 9.47C10.97 8.86 11.57 8.22 13.39 5.3C14.03 7.78 14.11 8.77 14.57 9.37C14.73 9.58 19.09 9.23 19.34 9.2C20.14 6.29 19.77 8.42 21.54 5C21.97 6.91 21.69 7.05 22.22 8.12C22.64 8.96 22.91 9.83 23.11 10.84C23.13 10.93 23.14 11.01 23.16 11.1L18.86 18.53L23.3 26.22H10.5V26.2Z" fill="white"/>
<path d="M2.42287 27.1406C2.43287 19.8806 1.61287 12.6206 1.51287 5.36063C1.32287 3.12063 3.26287 0.960629 5.56287 1.00063C12.2629 0.990629 18.9629 1.10063 25.6629 1.27063C26.3129 1.31063 27.6429 1.26063 28.3129 1.42063C29.9929 1.77063 31.2729 3.43063 31.1829 5.11063C30.9029 11.8106 30.8229 18.5106 31.1829 25.2106C31.1729 26.3206 31.4929 27.7506 30.9229 28.8206C30.3529 30.0706 29.0229 30.9806 27.5929 31.0006C21.1429 31.2506 13.9729 30.8006 7.49287 30.4306C6.37287 30.3106 5.16287 30.5406 4.13287 29.9606C3.09287 29.4206 2.40287 28.2906 2.42287 27.1306V27.1406ZM2.62287 27.1406C2.62287 28.2206 3.28287 29.2706 4.25287 29.7306C5.25287 30.2006 6.41287 29.9306 7.49287 29.9206L14.1929 29.5506C18.6629 29.2706 23.1229 29.2206 27.5929 29.3506C28.4029 29.3906 29.2529 28.9606 29.6829 28.2006C29.9029 27.8106 30.0029 27.4406 30.0129 26.8906C30.4129 19.6406 30.4229 12.3706 30.0929 5.11063C30.0429 3.95063 29.1529 2.98063 28.0429 2.83063C27.6529 2.79063 26.1129 2.86063 25.6729 2.86063C18.9729 3.03063 12.2729 3.15063 5.57287 3.13063C4.65287 3.10063 3.77287 3.80063 3.58287 4.71063C3.51287 5.05063 3.51287 6.62063 3.49287 7.03063C3.33287 13.7306 2.61287 20.4306 2.63287 27.1306L2.62287 27.1406Z" fill="white"/>
</svg>
