<svg width="32" height="32" viewBox="0 0 32 32" fill="none" xmlns="http://www.w3.org/2000/svg">
<path d="M10 26.2L14.45 18.51L10.04 10.9C10.04 10.9 10.04 10.86 10.04 10.83C10.08 10.41 10.15 9.96 10.22 9.47C10.47 8.86 11.07 8.22 12.89 5.3C13.53 7.78 13.61 8.77 14.07 9.37C14.23 9.58 18.59 9.23 18.84 9.2C19.64 6.29 19.27 8.42 21.04 5C21.47 6.91 21.19 7.05 21.72 8.12C22.14 8.96 22.41 9.83 22.61 10.84C22.63 10.93 22.64 11.01 22.66 11.1L18.36 18.53L22.8 26.22H10V26.2Z" fill="black"/>
<path d="M1.92287 27.1406C1.93287 19.8806 1.11287 12.6206 1.01287 5.36063C0.822873 3.12063 2.76287 0.960629 5.06287 1.00063C11.7629 0.990629 18.4629 1.10063 25.1629 1.27063C25.8129 1.31063 27.1429 1.26063 27.8129 1.42063C29.4929 1.77063 30.7729 3.43063 30.6829 5.11063C30.4029 11.8106 30.3229 18.5106 30.6829 25.2106C30.6729 26.3206 30.9929 27.7506 30.4229 28.8206C29.8529 30.0706 28.5229 30.9806 27.0929 31.0006C20.6429 31.2506 13.4729 30.8006 6.99287 30.4306C5.87287 30.3106 4.66287 30.5406 3.63287 29.9606C2.59287 29.4206 1.90287 28.2906 1.92287 27.1306V27.1406ZM2.12287 27.1406C2.12287 28.2206 2.78287 29.2706 3.75287 29.7306C4.75287 30.2006 5.91287 29.9306 6.99287 29.9206L13.6929 29.5506C18.1629 29.2706 22.6229 29.2206 27.0929 29.3506C27.9029 29.3906 28.7529 28.9606 29.1829 28.2006C29.4029 27.8106 29.5029 27.4406 29.5129 26.8906C29.9129 19.6406 29.9229 12.3706 29.5929 5.11063C29.5429 3.95063 28.6529 2.98063 27.5429 2.83063C27.1529 2.79063 25.6129 2.86063 25.1729 2.86063C18.4729 3.03063 11.7729 3.15063 5.07287 3.13063C4.15287 3.10063 3.27287 3.80063 3.08287 4.71063C3.01287 5.05063 3.01287 6.62063 2.99287 7.03063C2.83287 13.7306 2.11287 20.4306 2.13287 27.1306L2.12287 27.1406Z" fill="black"/>
</svg>
