<svg width="32" height="32" viewBox="0 0 32 32" fill="none" xmlns="http://www.w3.org/2000/svg">
<g clip-path="url(#clip0_51_1256)">
<path d="M0.989407 27.8086C1.00016 20.0852 0.118439 12.3618 0.0109121 4.63836C-0.193389 2.25538 1.89263 -0.042494 4.36575 5.9233e-05C11.5701 -0.0105791 18.7744 0.106442 25.9787 0.287293C26.6776 0.329846 28.1077 0.276655 28.8281 0.446868C30.6346 0.819208 32.0109 2.58517 31.9141 4.3724C31.6131 11.5001 31.527 18.6277 31.9141 25.7554C31.9034 26.9362 32.2475 28.4575 31.6346 29.5958C31.0217 30.9256 29.5916 31.8937 28.0539 31.915C21.1184 32.1809 13.4088 31.7022 6.44102 31.3086C5.23672 31.1809 3.93564 31.4256 2.82812 30.8086C1.70984 30.2341 0.967901 29.032 0.989407 27.7979V27.8086ZM1.20446 27.8086C1.20446 28.9575 1.91414 30.0745 2.95715 30.5639C4.03242 31.0639 5.27973 30.7767 6.44102 30.766L13.6453 30.3724C18.4518 30.0745 23.2475 30.0213 28.0539 30.1596C28.9249 30.2022 29.8389 29.7447 30.3012 28.9362C30.5378 28.5213 30.6453 28.1277 30.6561 27.5426C31.0862 19.8298 31.0969 12.0958 30.7421 4.3724C30.6883 3.13836 29.7313 2.10644 28.5378 1.94687C28.1184 1.90431 26.4625 1.97878 25.9894 1.97878C18.7851 2.15963 11.5808 2.28729 4.3765 2.26602C3.38726 2.2341 2.44102 2.97878 2.23672 3.94687C2.16145 4.30857 2.16145 5.97878 2.13994 6.41495C1.9679 13.5426 1.19371 20.6703 1.21521 27.7979L1.20446 27.8086Z" fill="black"/>
<path d="M12.527 18.1702H4.86035V25.7553H12.527V18.1702Z" fill="black"/>
<path d="M12.484 18.2128C9.80656 18.4681 7.45172 18.7234 4.86033 18.617L5.31194 18.1702C5.08613 20.6915 4.90334 23.2234 5.1614 25.7553L4.87108 25.4681C7.41947 25.266 9.9786 25.1915 12.5377 25.1915L11.9679 25.7553C12.0109 23.3617 12.2474 20.9787 12.5055 18.2128H12.484ZM12.5593 18.1383C12.8388 20.5745 13.0861 23.5319 13.1076 26.3192C10.3549 26.3405 7.60226 26.266 4.86033 26.0532L4.5485 26.0319L4.57 25.766C4.84957 23.0958 4.60226 20.4256 4.38721 17.766C7.06463 17.617 9.97861 17.8405 12.5593 18.149V18.1383Z" fill="black"/>
<path d="M20.1398 11.6383H12.4731V25.7553H20.1398V11.6383Z" fill="black"/>
<path d="M20.0967 11.6809C17.3547 11.883 14.9139 12.0745 12.473 12.1064L12.9461 11.6383C13.0214 13.9894 12.8493 16.3404 12.7096 18.6915C12.5805 21.0426 12.645 23.3936 12.7633 25.7447L12.473 25.4575C15.0321 25.2979 17.5805 25.2553 20.1397 25.2021L19.5913 25.7447C19.4838 21.0107 19.7956 16.5107 20.1074 11.6702L20.0967 11.6809ZM20.1719 11.6064C20.516 16.3511 20.8063 21.4575 20.6665 26.3085C17.9354 26.2553 15.1934 26.2234 12.4622 26.0426L12.1504 26.0213C12.2795 23.5745 12.3547 21.1383 12.2257 18.6915C12.0751 16.1809 11.9031 13.6702 12.0106 11.1702C14.7848 11.1915 17.6773 11.383 20.1612 11.6064H20.1719Z" fill="black"/>
<path d="M27.6344 16.5958H19.9678V25.7447H27.6344V16.5958Z" fill="black"/>
<path d="M27.6022 16.6383C24.7957 16.9043 22.4194 17.0958 19.9785 17.0745L20.4516 16.6064C20.4086 18.1277 20.2366 19.6596 20.1613 21.1809C20.0968 22.7022 20.1613 24.2341 20.2688 25.7554L19.9785 25.4681C22.5269 25.2766 25.086 25.2128 27.6452 25.1915L27.0753 25.7554C27.0753 22.6915 27.3548 19.7979 27.6129 16.6383H27.6022ZM27.6774 16.5639C27.9785 19.6809 28.2473 23.0958 28.2151 26.3192C25.4731 26.3192 22.7204 26.2447 19.9785 26.0426L19.6667 26.0213L19.6882 25.7554C20.0215 22.5426 19.6129 19.3405 19.4946 16.1383C22.2796 16.0851 25.2473 16.2766 27.6882 16.5639H27.6774Z" fill="black"/>
<path d="M15.8927 15.2766C15.8927 15.2766 15.8927 15.2553 15.882 15.2553C15.8712 15.2553 15.8605 15.2553 15.8497 15.2553C15.8497 15.2447 15.8712 15.234 15.882 15.234C15.8927 15.234 15.8927 15.2128 15.882 15.1915C15.8927 15.1915 15.9035 15.1915 15.9142 15.1915C15.925 15.1915 15.9357 15.1915 15.9572 15.1809C15.9572 15.1809 15.9357 15.1702 15.925 15.1702C15.9142 15.1702 15.9035 15.1702 15.8927 15.1596C15.9142 15.0851 15.925 15.0213 15.925 14.9681C15.925 14.9043 15.9465 14.8511 15.9895 14.7979C15.9787 14.766 15.968 14.734 15.9895 14.7021C16.011 14.6702 16.0217 14.6489 16.0432 14.6277C16.054 14.6489 16.0648 14.6702 16.054 14.6809C16.054 14.7021 16.0432 14.7234 16.0325 14.734C16.054 14.734 16.0755 14.7021 16.0863 14.6596C16.097 14.617 16.097 14.5745 16.097 14.5426C16.0863 14.5532 16.0755 14.5745 16.0755 14.6064H16.054C16.054 14.6064 16.0432 14.6064 16.0325 14.6064C16.0325 14.5638 16.0325 14.5319 16.054 14.5C16.054 14.4681 16.0755 14.4362 16.097 14.4149C16.097 14.4149 16.0755 14.4043 16.0755 14.383C16.054 14.383 16.0325 14.383 16.011 14.4043C15.9895 14.4255 15.9787 14.4255 15.968 14.4468C15.9572 14.4575 15.9357 14.4787 15.925 14.4894C15.9142 14.5 15.8927 14.5106 15.8712 14.5213C15.7959 14.5958 15.7207 14.6596 15.6454 14.7234C15.5701 14.7872 15.4734 14.8404 15.3766 14.883C15.3766 14.9043 15.3766 14.9043 15.3873 14.9043C15.3873 14.9043 15.4088 14.9043 15.4196 14.9043C15.4088 14.9255 15.3981 14.9362 15.3873 14.9362C15.3766 14.9362 15.3658 14.9362 15.3443 14.9362C15.3336 14.9362 15.3121 14.9362 15.3013 14.9149C15.2906 14.8936 15.2691 14.9043 15.2583 14.9043C15.2583 14.8723 15.2691 14.8404 15.2798 14.8085C15.2906 14.7766 15.3013 14.766 15.3228 14.7766C15.3228 14.6915 15.3336 14.617 15.3658 14.5638C15.3981 14.5106 15.4196 14.4468 15.4411 14.383C15.5594 14.2234 15.6884 14.0851 15.8067 13.9468C15.9357 13.8085 16.0863 13.7021 16.2691 13.6064C16.3121 13.5638 16.3658 13.5426 16.4411 13.5319C16.5164 13.5319 16.5809 13.5319 16.6562 13.5319C16.6562 13.5638 16.6562 13.6064 16.6346 13.6277C16.6239 13.6596 16.6131 13.6915 16.6024 13.7234C16.5916 13.7553 16.5809 13.7872 16.5701 13.8192C16.5701 13.8511 16.5701 13.883 16.5701 13.9149C16.5701 13.9149 16.5594 13.9043 16.5379 13.9043V13.9468C16.5379 13.9468 16.5379 13.9681 16.5594 13.9681C16.5379 14.0426 16.5271 14.1277 16.5164 14.2128C16.5056 14.2979 16.4949 14.3936 16.4841 14.4894C16.4841 14.5851 16.4626 14.6809 16.4626 14.766C16.4626 14.8617 16.4518 14.9468 16.4411 15.0319C16.4411 15.0426 16.4411 15.0532 16.4303 15.0745C16.4196 15.0958 16.4303 15.117 16.4411 15.1383C16.4411 15.1596 16.4411 15.1702 16.4303 15.1596C16.4303 15.1596 16.4196 15.1596 16.4088 15.1702C16.4088 15.1915 16.4088 15.2128 16.4088 15.234C16.4088 15.2553 16.4088 15.266 16.4088 15.2766C16.4088 15.2872 16.4088 15.2979 16.4088 15.3192C16.4088 15.3298 16.4088 15.3511 16.3981 15.383C16.3981 15.4362 16.3766 15.4894 16.3551 15.5426L16.3121 15.7128C16.2691 15.883 16.226 16.0532 16.1615 16.2128C16.1078 16.383 16.0325 16.5319 15.9572 16.6596C15.9465 16.6596 15.925 16.6596 15.9035 16.6596C15.9035 16.617 15.882 16.5958 15.882 16.5638C15.882 16.5426 15.882 16.5106 15.8605 16.4787C15.8389 16.4787 15.8282 16.4787 15.8282 16.5C15.8282 16.5106 15.8067 16.5213 15.7959 16.5213C15.7744 16.4787 15.7529 16.4255 15.7529 16.3723C15.7529 16.3192 15.7529 16.2553 15.7529 16.1915C15.7529 16.1277 15.7637 16.0638 15.7744 16C15.7744 15.9362 15.7959 15.883 15.7959 15.8192C15.7959 15.7979 15.7959 15.7872 15.7959 15.766C15.7959 15.7447 15.7959 15.734 15.7959 15.7128C15.7959 15.6915 15.7959 15.6809 15.8174 15.6702C15.8174 15.6702 15.8282 15.6489 15.8282 15.6383C15.8282 15.6277 15.8282 15.617 15.8174 15.617C15.8174 15.617 15.8174 15.6064 15.8389 15.5958H15.8282C15.8497 15.5638 15.8605 15.5319 15.8497 15.4894C15.8389 15.4468 15.8497 15.4149 15.882 15.383C15.882 15.383 15.882 15.383 15.8605 15.383H15.8389C15.8389 15.3511 15.8497 15.3404 15.8605 15.3404C15.8712 15.3404 15.8712 15.3404 15.882 15.3192L15.8927 15.2766ZM15.5916 14.5958C15.5916 14.5958 15.6131 14.5745 15.6239 14.5745C15.6239 14.5745 15.6346 14.5745 15.6239 14.5426C15.6024 14.5319 15.5916 14.5426 15.5809 14.5532C15.5809 14.5745 15.5809 14.5851 15.5809 14.5958H15.5916ZM15.882 16.3617C15.9035 16.266 15.9035 16.1702 15.9035 16.0851C15.9035 16 15.9035 15.9043 15.9035 15.8192C15.9035 15.7553 15.9142 15.7021 15.9357 15.6489C15.9572 15.5958 15.9465 15.5532 15.925 15.5106C15.9142 15.5745 15.9035 15.6383 15.8927 15.7128C15.882 15.7872 15.8712 15.8617 15.8605 15.9362C15.8497 16.0106 15.8605 16.0851 15.8605 16.1596C15.8605 16.234 15.882 16.2979 15.9035 16.3617H15.882ZM15.925 15.4894C15.925 15.4894 15.9357 15.4575 15.9465 15.4255C15.9465 15.3936 15.9465 15.3723 15.9357 15.3617C15.9357 15.383 15.9357 15.4043 15.9142 15.4255C15.9142 15.4468 15.9142 15.4681 15.9142 15.4894H15.925ZM15.9895 16.5C15.9895 16.5 15.968 16.4787 15.9787 16.4575C15.9787 16.4362 15.9787 16.4255 15.9895 16.4043C15.9787 16.4043 15.968 16.4043 15.9572 16.4255C15.9465 16.4468 15.9572 16.4468 15.9572 16.4681C15.9572 16.4787 15.9572 16.4894 15.9572 16.5C15.9572 16.5 15.968 16.5 15.9787 16.5H15.9895ZM15.968 15.4575C15.968 15.4575 15.9787 15.4575 15.9787 15.4787C15.9787 15.4894 15.9787 15.4894 16.0002 15.4894C16.0002 15.4894 16.0002 15.4681 16.0002 15.4575C16.0002 15.4468 15.9895 15.4362 15.9787 15.4255C15.9787 15.4362 15.9787 15.4468 15.9787 15.4468C15.968 15.4468 15.9572 15.4468 15.968 15.4681V15.4575ZM15.9895 16.3085H16.0217C16.0002 16.3192 15.9895 16.3404 15.9895 16.3404V16.3617C15.9895 16.3617 15.9895 16.3723 15.9895 16.383C15.9895 16.383 15.9895 16.4043 15.9787 16.4255C16.0002 16.4255 16.011 16.4255 16.011 16.4043C16.011 16.383 16.011 16.3723 16.0217 16.3617C16.0217 16.3511 16.0217 16.3298 16.0217 16.3192C16.0217 16.3085 16.0325 16.2979 16.054 16.2979C16.054 16.2766 16.054 16.2553 16.054 16.2447C16.054 16.234 16.054 16.2128 16.054 16.1915C16.0217 16.1915 16.011 16.2128 16.0002 16.234C16.0002 16.2553 15.9895 16.2766 15.968 16.2979L15.9895 16.3085ZM16.0755 14.4787H16.097C16.097 14.4787 16.097 14.4787 16.1185 14.4894C16.1185 14.4787 16.1185 14.4681 16.1185 14.4575C16.1185 14.4575 16.1185 14.4468 16.1185 14.4362C16.1185 14.4575 16.1185 14.4575 16.097 14.4575C16.0755 14.4575 16.0755 14.4575 16.0755 14.4681V14.4787Z" fill="white"/>
<path d="M23.5267 21.0213C23.5267 21.0213 23.5051 21.1064 23.4836 21.1596C23.4514 21.2128 23.4191 21.2447 23.3654 21.2553C23.3546 21.1915 23.3654 21.1277 23.3976 21.0638C23.4406 21 23.4729 20.9468 23.4944 20.8936C23.4944 20.8936 23.4836 20.883 23.4729 20.8723C23.4729 20.8723 23.4621 20.8511 23.4621 20.8404C23.4621 20.8298 23.4621 20.8191 23.4836 20.8085C23.5051 20.8085 23.4944 20.7979 23.4729 20.7979C23.5482 20.6915 23.6234 20.5638 23.6772 20.4255C23.731 20.2872 23.7955 20.1489 23.86 20.0213C23.8922 19.9574 23.9245 19.8936 23.9783 19.8298C24.032 19.766 24.075 19.7128 24.118 19.6808C24.1396 19.6596 24.1718 19.6489 24.2041 19.6383C24.2363 19.6277 24.2686 19.617 24.3008 19.617C24.3546 19.5851 24.4084 19.5532 24.4729 19.5213C24.5374 19.4894 24.6019 19.4681 24.6772 19.4787C24.6879 19.4787 24.7202 19.4787 24.7525 19.5C24.7847 19.5106 24.817 19.5319 24.8492 19.5532C24.8815 19.5745 24.9137 19.5957 24.9353 19.617C24.9568 19.6383 24.9783 19.6596 24.989 19.6702C24.989 19.6702 24.989 19.6915 24.989 19.7021C24.989 19.7021 24.989 19.7234 24.9998 19.734C24.989 19.8404 24.9783 19.9362 24.9783 20.0213C24.9783 20.1064 24.9675 20.2021 24.946 20.3085C24.946 20.3511 24.9245 20.3936 24.903 20.4362C24.8815 20.4681 24.8707 20.5106 24.8492 20.5532C24.8062 20.6596 24.7525 20.766 24.6987 20.8617C24.6449 20.9681 24.5912 21.0638 24.5374 21.1702C24.5374 21.1702 24.5374 21.1808 24.5374 21.1915C24.5374 21.1915 24.5374 21.2021 24.5374 21.2128C24.4836 21.3085 24.4191 21.4149 24.3654 21.5213C24.3116 21.6277 24.2471 21.734 24.1826 21.8298C24.2686 21.8085 24.3654 21.7766 24.4621 21.7234C24.5589 21.6702 24.6772 21.6383 24.7847 21.617C24.8385 21.617 24.8922 21.5957 24.9353 21.5851C24.989 21.5745 25.032 21.5638 25.075 21.5638C25.1073 21.5638 25.1396 21.5745 25.1718 21.5851C25.2041 21.5957 25.2363 21.5851 25.2686 21.5638C25.2256 21.6383 25.1718 21.7128 25.1073 21.7766C25.0428 21.8404 24.9783 21.9043 24.903 21.9574C24.8277 22.0213 24.7525 22.0745 24.6772 22.1383C24.6019 22.2021 24.5374 22.2553 24.4729 22.3298C24.4729 22.3298 24.4621 22.3298 24.4514 22.3298H24.4299C24.3869 22.3298 24.3439 22.3617 24.3008 22.383C24.2578 22.4149 24.2041 22.4362 24.1611 22.4574C24.1288 22.4681 24.0965 22.4681 24.0643 22.4681C24.032 22.4681 23.9998 22.4681 23.9675 22.4681C23.903 22.4787 23.8385 22.5106 23.7632 22.5425C23.6879 22.5745 23.6234 22.617 23.5482 22.6277C23.5159 22.6277 23.4836 22.6383 23.4621 22.6383C23.4299 22.6383 23.4084 22.6383 23.3869 22.5957C23.3869 22.5106 23.4299 22.4574 23.4944 22.4255C23.4836 22.4043 23.4621 22.383 23.4406 22.383C23.4514 22.3511 23.4729 22.3191 23.4944 22.2872C23.5159 22.2553 23.5374 22.2234 23.5697 22.1915C23.6019 22.1596 23.6127 22.1277 23.6234 22.0957C23.6342 22.0638 23.6449 22.0319 23.6449 21.9894C23.6664 21.9894 23.6772 21.9894 23.6772 21.9681C23.6772 21.9468 23.6772 21.9362 23.6987 21.9362C23.7202 21.8723 23.7417 21.8085 23.774 21.7553C23.8062 21.6915 23.8385 21.6383 23.86 21.5851C23.9245 21.4574 23.989 21.3404 24.0643 21.2234C24.1396 21.1064 24.2041 20.9894 24.2793 20.8723V20.8191C24.3116 20.766 24.3546 20.7021 24.3869 20.6383C24.4299 20.5745 24.4621 20.5 24.4944 20.4362C24.5267 20.3617 24.5589 20.2872 24.5697 20.2128C24.5912 20.1383 24.5912 20.0638 24.5912 19.9787C24.5697 19.9787 24.5482 19.9787 24.5267 19.9787C24.5051 19.9787 24.4836 19.9574 24.4621 19.9468C24.4191 20.0213 24.3654 20.0851 24.2901 20.1596C24.2148 20.234 24.1503 20.2979 24.0965 20.3723C24.0643 20.3723 24.032 20.3723 23.9998 20.3936C23.9675 20.4149 23.946 20.4362 23.9245 20.4681C23.946 20.4681 23.9568 20.4574 23.9675 20.4468C23.9675 20.4468 23.989 20.4255 24.0105 20.4255C23.9998 20.4362 23.989 20.4468 23.9783 20.4574C23.9783 20.4681 23.9675 20.4894 23.9568 20.5C23.9137 20.5319 23.8707 20.5638 23.8385 20.5957C23.8062 20.6383 23.774 20.6702 23.7525 20.7128C23.731 20.7553 23.6987 20.7979 23.6772 20.8404C23.6557 20.883 23.6234 20.9255 23.5804 20.9574C23.5804 20.9574 23.5697 20.9362 23.5589 20.9255C23.5589 20.9149 23.5374 20.9255 23.5267 20.9362H23.5374C23.5374 20.9574 23.5159 20.9787 23.4944 21.0106C23.4729 21.0425 23.4514 21.0745 23.4406 21.0957C23.4514 21.0957 23.4729 21.0851 23.4944 21.0532C23.5159 21.0213 23.5267 21 23.5482 20.9894L23.5267 21.0213ZM23.4299 22.5745C23.4299 22.5745 23.5159 22.5745 23.5482 22.5745C23.5804 22.5745 23.6234 22.5425 23.6557 22.5213C23.6557 22.5213 23.6342 22.5213 23.6127 22.5213C23.5912 22.5213 23.5804 22.5213 23.5697 22.5213C23.5697 22.5 23.5697 22.4894 23.5697 22.4787C23.5697 22.4787 23.5697 22.4574 23.5697 22.4468C23.5267 22.4468 23.4944 22.4787 23.4836 22.5106C23.4621 22.5425 23.4514 22.5745 23.4299 22.6064V22.5745ZM23.5589 20.9255C23.5589 20.9255 23.5697 20.8936 23.5804 20.883C23.5912 20.8723 23.6019 20.8511 23.6019 20.8404C23.5804 20.8404 23.5697 20.8404 23.5589 20.8723C23.5482 20.8936 23.5482 20.9149 23.5589 20.9255ZM23.6557 22.4574C23.6557 22.4574 23.7202 22.4787 23.7632 22.4681C23.8062 22.4574 23.8385 22.4362 23.8492 22.4043C23.8062 22.4043 23.774 22.4043 23.7417 22.4043C23.6987 22.4043 23.6772 22.4255 23.6557 22.4468V22.4574ZM23.9568 20C23.9568 20 24.032 19.9255 24.0643 19.883C24.0965 19.8404 24.1288 19.7872 24.1611 19.7553C24.1503 19.7553 24.1396 19.7553 24.1396 19.766C24.0965 19.7979 24.0535 19.8298 24.0213 19.8723C23.989 19.9149 23.9568 19.9574 23.9568 20.0106V20ZM23.9998 21.5638C23.9998 21.5638 24.032 21.5319 24.0428 21.5106C24.0535 21.4894 24.0643 21.4681 24.0643 21.4574C24.0643 21.4787 24.0428 21.5 24.0213 21.5106C23.9998 21.5319 23.9998 21.5532 23.9998 21.5638ZM23.9998 22.1277C24.0535 22.1064 24.1073 22.0851 24.1503 22.0532C24.1933 22.0213 24.2363 22 24.2793 21.9681C24.2256 21.9894 24.1718 22.0106 24.1288 22.0319C24.0858 22.0638 24.0428 22.0851 23.9998 22.1277ZM24.0428 22.234C24.0428 22.234 24.0965 22.2234 24.118 22.2021C24.0965 22.2021 24.0858 22.2021 24.075 22.2021C24.0643 22.2021 24.0535 22.2021 24.0535 22.2234L24.0428 22.234ZM24.0428 20.3191C24.0428 20.3191 24.0965 20.266 24.1288 20.2447C24.1611 20.2234 24.1718 20.1915 24.1826 20.1489C24.1503 20.1596 24.1073 20.1808 24.075 20.2234C24.0428 20.266 24.032 20.2872 24.032 20.3191H24.0428ZM24.0643 21.7447C24.0643 21.7447 24.0965 21.7128 24.1073 21.7021C24.118 21.6915 24.1288 21.6702 24.1396 21.6596C24.1396 21.6596 24.1396 21.6596 24.1288 21.6596C24.1288 21.6808 24.1073 21.6915 24.0965 21.7021C24.0858 21.7021 24.075 21.734 24.0858 21.7553L24.0643 21.7447ZM24.0643 21.3298C24.1611 21.1915 24.2578 21.0532 24.3546 20.9149C24.4514 20.7766 24.5159 20.617 24.5589 20.4149C24.5589 20.4149 24.5589 20.4149 24.5482 20.4149C24.4729 20.5745 24.3976 20.7234 24.3008 20.8723C24.2148 21.0213 24.1288 21.1808 24.0643 21.3298ZM24.118 22.3723C24.1826 22.3723 24.2471 22.3404 24.3008 22.2979C24.2686 22.3085 24.2363 22.3191 24.2041 22.3298C24.1718 22.3404 24.1396 22.3511 24.1073 22.3723H24.118ZM24.2256 21.4362C24.2256 21.4362 24.2686 21.3404 24.3116 21.2979C24.3546 21.2553 24.3761 21.2021 24.3761 21.1596C24.3546 21.2021 24.3224 21.2553 24.2793 21.2979C24.2363 21.3404 24.2256 21.3936 24.2256 21.4362ZM24.3224 22.2979C24.3224 22.2979 24.3869 22.2553 24.4191 22.2447C24.4514 22.234 24.4836 22.2128 24.4944 22.1915C24.4944 22.2021 24.4729 22.2128 24.4514 22.2234C24.4299 22.234 24.4084 22.234 24.3976 22.2447C24.3761 22.2447 24.3654 22.2553 24.3439 22.266C24.3223 22.2766 24.3224 22.2872 24.3224 22.2979ZM24.3546 21.9149C24.4299 21.8936 24.4944 21.8617 24.5589 21.8298C24.6234 21.7979 24.6879 21.766 24.7525 21.734C24.6772 21.7553 24.6127 21.7872 24.5374 21.8085C24.4621 21.8298 24.4084 21.8723 24.3439 21.9149H24.3546ZM24.4621 19.9255C24.4621 19.9255 24.4944 19.9255 24.5159 19.9362C24.5374 19.9468 24.5482 19.9362 24.5482 19.9149C24.5482 19.8936 24.5159 19.883 24.4944 19.883C24.4729 19.883 24.4621 19.8936 24.4514 19.9255H24.4621ZM24.6449 19.8617C24.6449 19.8617 24.6449 19.8191 24.6127 19.8085V19.8511C24.6127 19.8511 24.6127 19.8617 24.6449 19.8511V19.8617Z" fill="white"/>
<path d="M8.84929 20.9681C8.77402 20.9681 8.72026 20.9787 8.6665 21C8.61274 21.0213 8.56972 21.0426 8.51596 21.0638C8.47295 21.0958 8.41919 21.117 8.37618 21.1489C8.33317 21.1809 8.2794 21.2021 8.22564 21.2128C8.22564 21.1809 8.23639 21.1596 8.2579 21.1383C8.2794 21.1277 8.30091 21.1064 8.32241 21.0958C8.34392 21.0851 8.36542 21.0745 8.38693 21.0638C8.40843 21.0638 8.42994 21.0319 8.44069 21.0106C8.44069 21.0106 8.41919 21.0106 8.40843 21.0106C8.39768 21.0106 8.37618 21.0106 8.36542 21.0106C8.42994 20.8723 8.49446 20.7341 8.55897 20.5958C8.62349 20.4575 8.688 20.3192 8.75252 20.1809C8.74177 20.1596 8.72026 20.1489 8.70951 20.1277C8.69876 20.1064 8.67725 20.0958 8.65575 20.0851C8.60198 20.117 8.55897 20.1489 8.50521 20.1702C8.45144 20.1915 8.41919 20.2447 8.39768 20.2979C8.31166 20.3404 8.23639 20.4043 8.17187 20.4787C8.10736 20.5532 8.04284 20.617 7.96757 20.6809C8.04284 20.6915 8.10736 20.6809 8.19338 20.6596C8.26865 20.6383 8.32241 20.6064 8.35467 20.5745C8.35467 20.617 8.35467 20.6383 8.31166 20.6596C8.2794 20.6809 8.24714 20.7021 8.20413 20.7128C8.16112 20.7234 8.11811 20.7341 8.06435 20.7447C8.02134 20.7447 7.97833 20.766 7.95682 20.766C7.95682 20.766 7.95682 20.766 7.92456 20.766C7.8923 20.766 7.88155 20.766 7.88155 20.7447C7.86005 20.7447 7.83854 20.7553 7.82779 20.7766C7.81704 20.7979 7.79553 20.7979 7.77403 20.7766C7.77403 20.7447 7.77403 20.7234 7.79553 20.7234C7.81704 20.7234 7.82779 20.7021 7.83854 20.6702C7.80628 20.6702 7.78478 20.6915 7.76327 20.7021C7.74177 20.7234 7.72026 20.7341 7.688 20.7341C7.6665 20.7128 7.6665 20.6809 7.688 20.6383C7.70951 20.5958 7.73101 20.5745 7.75252 20.5532C7.75252 20.5106 7.75252 20.4787 7.78478 20.4575C7.80628 20.4362 7.82779 20.4149 7.84929 20.383C7.89231 20.3085 7.93532 20.2447 7.96757 20.1809C7.99983 20.117 8.0536 20.0638 8.10736 20.0213C8.13962 20 8.17187 19.9681 8.21489 19.9468C8.2579 19.9255 8.29015 19.9043 8.33317 19.883C8.37618 19.8617 8.41919 19.8404 8.45144 19.8085C8.4837 19.7872 8.51596 19.7553 8.54822 19.7234C8.58048 19.7128 8.63424 19.6915 8.688 19.6702C8.74177 19.6489 8.80628 19.6383 8.86005 19.6277C8.91381 19.617 8.96757 19.617 9.02134 19.6277C9.0751 19.6277 9.11811 19.6596 9.15037 19.6915C9.15037 19.7128 9.16112 19.7341 9.16112 19.7553C9.16112 19.7766 9.16112 19.7872 9.15037 19.8085C9.16112 19.8085 9.17187 19.8298 9.18263 19.8404C9.18263 19.8511 9.19338 19.8617 9.20413 19.8723C9.20413 19.9468 9.19338 20.0106 9.17187 20.0532C9.15037 20.0958 9.11811 20.1383 9.08585 20.1809C9.08585 20.2553 9.0751 20.3085 9.0536 20.3723C9.03209 20.4362 9.02134 20.4787 8.99983 20.5319C9.06435 20.5319 9.13962 20.5213 9.21489 20.5106C9.29015 20.5106 9.36542 20.5106 9.44069 20.5426C9.4622 20.5638 9.49446 20.5851 9.52671 20.6064C9.55897 20.6277 9.59123 20.6383 9.62349 20.6596C9.64499 20.6809 9.6665 20.7021 9.67725 20.7341C9.67725 20.766 9.70951 20.7872 9.74177 20.8085C9.79553 21.0319 9.78478 21.2447 9.73101 21.4362C9.6665 21.6277 9.58048 21.7872 9.45144 21.9043C9.44069 21.9468 9.41919 22 9.38693 22.0532C9.35467 22.1064 9.33316 22.1489 9.30091 22.1915C9.21489 22.3192 9.10736 22.4255 8.97833 22.5213C8.84929 22.617 8.72026 22.6915 8.56972 22.7553C8.53747 22.7553 8.50521 22.7766 8.45144 22.7872C8.39768 22.7979 8.35467 22.7872 8.31166 22.7872C8.31166 22.7766 8.31166 22.766 8.29015 22.7553C8.29015 22.7553 8.2794 22.7447 8.29015 22.7234C8.24714 22.7021 8.20413 22.6915 8.17187 22.7021C8.12886 22.7021 8.09661 22.7021 8.0536 22.6809C8.0536 22.6596 8.0536 22.6489 8.0536 22.6277C8.0536 22.6064 8.0751 22.5958 8.08585 22.5745C8.0536 22.5426 8.03209 22.5106 8.02134 22.4575C8.01058 22.4149 8.02134 22.3723 8.0536 22.3298C8.0536 22.266 8.04284 22.2021 8.02134 22.1277C8.01058 22.0638 7.99983 21.9894 7.98908 21.9149C7.96757 21.9149 7.95682 21.8723 7.96757 21.8298C7.96757 21.7872 7.98908 21.766 8.01058 21.7447C8.0536 21.7447 8.08585 21.7447 8.09661 21.7553C8.10736 21.766 8.12886 21.7979 8.13962 21.8192C8.13962 21.8511 8.15037 21.883 8.15037 21.9149C8.15037 21.9468 8.15037 21.9787 8.16112 22.0106C8.18263 21.9894 8.20413 21.9787 8.21489 21.9575C8.23639 21.9362 8.2579 21.9255 8.30091 21.9255C8.32241 21.9468 8.34392 21.9787 8.35467 21.9894C8.37618 22.0106 8.39768 22.0213 8.44069 22.0319C8.4837 21.9894 8.54822 21.9468 8.62349 21.8936C8.69876 21.8511 8.77402 21.7979 8.84929 21.7447C8.92456 21.6915 8.99983 21.6383 9.06435 21.5745C9.12886 21.5213 9.17188 21.4575 9.20413 21.3936C9.20413 21.3723 9.20413 21.3511 9.20413 21.3298C9.20413 21.3085 9.19338 21.2872 9.18263 21.266C9.18263 21.2234 9.16112 21.1809 9.16112 21.1277C9.16112 21.0851 9.13962 21.0426 9.10736 21.0106C9.08585 21.0106 9.0751 21.0106 9.06435 20.9894C9.06435 20.9894 9.06435 20.9894 9.06435 21.0106C9.06435 20.9894 9.05359 20.9787 9.03209 20.9681C9.01058 20.9681 8.98908 20.9575 8.96757 20.9468C8.94607 20.9468 8.92456 20.9468 8.89231 20.9255C8.8708 20.9255 8.84929 20.9043 8.83854 20.883L8.84929 20.9681ZM7.79553 20.5638C7.79553 20.5638 7.88155 20.5 7.91381 20.4575C7.94607 20.4149 7.97833 20.3723 8.01058 20.3298C8.04284 20.2872 8.06435 20.2447 8.09661 20.2021C8.12886 20.1596 8.16112 20.117 8.20413 20.0851V20.0745C8.20413 20.0745 8.20413 20.0745 8.19338 20.0745C8.10736 20.1383 8.03209 20.2128 7.96757 20.2979C7.90306 20.383 7.84929 20.4787 7.79553 20.5745V20.5638ZM8.11811 22.1277C8.11811 22.1277 8.11811 22.0426 8.11811 22C8.11811 21.9468 8.09661 21.9043 8.0751 21.8617C8.0536 21.9043 8.04284 21.9575 8.06435 22.0106C8.08585 22.0638 8.10736 22.1064 8.12886 22.1383L8.11811 22.1277ZM8.13962 22.6702C8.13962 22.6702 8.20413 22.6702 8.20413 22.6383C8.17187 22.6383 8.15037 22.6383 8.13962 22.6702ZM8.19338 22.1596C8.19338 22.1596 8.21489 22.1809 8.21489 22.1915C8.21489 22.2021 8.22564 22.2128 8.23639 22.2234C8.29015 22.2234 8.32241 22.2021 8.33317 22.1596C8.33317 22.1596 8.31166 22.1596 8.30091 22.1596C8.29015 22.1596 8.26865 22.1489 8.2579 22.1383C8.24714 22.1277 8.22564 22.1277 8.21489 22.1277C8.20413 22.1277 8.19338 22.1383 8.19338 22.1596ZM8.2579 22.2872C8.2579 22.2872 8.31166 22.2872 8.34392 22.2872C8.37618 22.2872 8.39768 22.2872 8.40843 22.266C8.38693 22.266 8.37618 22.266 8.37618 22.2447C8.37618 22.2234 8.37618 22.2234 8.34392 22.2234C8.34392 22.2447 8.32241 22.2553 8.30091 22.2553C8.2794 22.2553 8.2579 22.2766 8.2579 22.2979V22.2872ZM8.47295 22.3298C8.47295 22.3298 8.47295 22.3511 8.47295 22.3617C8.47295 22.3617 8.47295 22.383 8.47295 22.3936C8.49446 22.3936 8.51596 22.3723 8.52671 22.3617C8.53747 22.3511 8.54822 22.3298 8.55897 22.3085C8.53747 22.3085 8.52671 22.3085 8.51596 22.3085C8.50521 22.3085 8.49446 22.3085 8.4837 22.3192L8.47295 22.3298ZM8.49446 22.266H8.53747C8.53747 22.266 8.55897 22.266 8.55897 22.2341C8.53747 22.2341 8.51596 22.2341 8.50521 22.2234C8.49446 22.2128 8.47295 22.2128 8.4622 22.2234C8.4622 22.2234 8.47295 22.2234 8.47295 22.2341C8.47295 22.2341 8.47295 22.2447 8.47295 22.2553L8.49446 22.266ZM8.51596 22.1277C8.51596 22.1277 8.60198 22.1809 8.63424 22.1809C8.6665 22.1809 8.70951 22.1809 8.75252 22.1489C8.79553 22.1277 8.82779 22.1064 8.86005 22.0638C8.8923 22.0213 8.92456 22 8.95682 21.9681C9.01058 21.9043 9.06435 21.8298 9.11811 21.7553C9.17187 21.6809 9.19338 21.617 9.20413 21.5745C9.10736 21.6915 8.99983 21.7872 8.88155 21.8723C8.76327 21.9575 8.64499 22.0426 8.52671 22.1277H8.51596ZM8.51596 22.7128C8.51596 22.7128 8.54822 22.7128 8.55897 22.7128C8.58048 22.7128 8.60198 22.7128 8.61274 22.7021C8.62349 22.6915 8.64499 22.6915 8.64499 22.6809V22.6596C8.62349 22.6596 8.60198 22.6702 8.56972 22.6809C8.53747 22.6809 8.52671 22.7021 8.51596 22.7234V22.7128ZM8.70951 22.266C8.70951 22.266 8.65575 22.3085 8.62349 22.3298C8.59123 22.3511 8.56972 22.3723 8.54822 22.3936C8.6665 22.3617 8.75252 22.3192 8.82779 22.2553C8.79553 22.2553 8.77402 22.2553 8.76327 22.2766C8.75252 22.2872 8.73101 22.2872 8.69876 22.2766L8.70951 22.266ZM8.70951 22.5745C8.70951 22.5745 8.75252 22.5745 8.76327 22.5745C8.76327 22.5638 8.78478 22.5532 8.79553 22.5426C8.77403 22.5426 8.75252 22.5426 8.74177 22.5638C8.73101 22.5745 8.72026 22.5851 8.69876 22.5958L8.70951 22.5745ZM8.93532 22.3617C8.93532 22.3617 8.93532 22.3617 8.93532 22.3511C8.92456 22.3723 8.91381 22.3936 8.89231 22.4043C8.8708 22.4149 8.86005 22.4362 8.84929 22.4681C8.90306 22.4575 8.94607 22.4255 8.96757 22.3936C8.99983 22.3511 9.02134 22.3192 9.0536 22.2766C9.01058 22.2766 8.98908 22.2979 8.97833 22.3192C8.96757 22.3404 8.95682 22.3617 8.94607 22.3723L8.93532 22.3617ZM8.83854 19.7553C8.83854 19.7553 8.88155 19.766 8.90306 19.766C8.92456 19.766 8.94607 19.766 8.96757 19.7872C8.96757 19.766 8.96757 19.7447 8.95682 19.7447C8.95682 19.7447 8.93532 19.7341 8.91381 19.7234C8.8923 19.7234 8.88155 19.7234 8.8708 19.7234C8.86005 19.7234 8.84929 19.7341 8.83854 19.7447V19.7553ZM9.15037 21.7979C9.10736 21.8617 9.06435 21.9149 9.02134 21.9681C8.97833 22.0213 8.92456 22.0638 8.88155 22.117C8.91381 22.117 8.95682 22.0958 8.98908 22.0745C9.02134 22.0532 9.05359 22.0213 9.0751 21.9894C9.09661 21.9575 9.11811 21.9255 9.12886 21.8936C9.13962 21.8617 9.15037 21.8298 9.15037 21.8085V21.7979ZM8.89231 20.2341C8.89231 20.2341 8.8923 20.2128 8.91381 20.2021C8.93532 20.1915 8.92456 20.1702 8.93532 20.1596C8.93532 20.1383 8.93532 20.1277 8.93532 20.117C8.93532 20.1064 8.93532 20.0958 8.91381 20.0851C8.91381 20.117 8.91381 20.1489 8.89231 20.1702C8.8708 20.1915 8.8708 20.2234 8.89231 20.2447V20.2341ZM8.89231 20.4255C8.89231 20.4255 8.91381 20.4043 8.92456 20.383C8.93532 20.3617 8.93532 20.3511 8.92456 20.3298C8.92456 20.3404 8.91381 20.3617 8.89231 20.383C8.88155 20.4043 8.8708 20.4149 8.89231 20.4255ZM9.11811 21V20.9575C9.11811 20.9575 9.04284 20.9575 9.02134 20.9362C8.99983 20.9255 8.96757 20.9362 8.92456 20.9362C8.95682 20.9362 8.99983 20.9468 9.03209 20.9575C9.06435 20.9575 9.09661 20.9787 9.11811 20.9894V21ZM9.03209 19.7872C9.03209 19.7872 9.06435 19.7872 9.0751 19.7872C9.08585 19.7872 9.09661 19.7872 9.11811 19.7872V19.7341C9.11811 19.7341 9.08585 19.7234 9.0751 19.7128C9.0751 19.7021 9.04284 19.6915 9.01058 19.7021C9.01058 19.7234 9.01058 19.7341 9.01058 19.7447C9.01058 19.7447 9.02134 19.766 9.01058 19.7872H9.03209ZM9.03209 20.6383C9.03209 20.6383 9.13962 20.6383 9.19338 20.6383C9.24714 20.6383 9.30091 20.6277 9.35467 20.6064C9.31166 20.6064 9.24714 20.5958 9.19338 20.5851C9.12886 20.5851 9.08585 20.5851 9.04284 20.6277L9.03209 20.6383ZM9.03209 19.9362C9.03209 19.9362 9.06435 19.9362 9.06435 19.9149C9.06435 19.8936 9.06435 19.883 9.04284 19.883C9.04284 19.8936 9.04284 19.9043 9.04284 19.9043C9.04284 19.9043 9.03209 19.9043 9.04284 19.9255L9.03209 19.9362ZM9.10736 20.1277C9.10736 20.1277 9.13962 20.0532 9.16112 20C9.18263 19.9468 9.17188 19.9149 9.15037 19.883C9.15037 19.9255 9.15037 19.9681 9.12886 20.0106C9.10736 20.0532 9.10736 20.0958 9.11811 20.1277H9.10736ZM9.23639 20.9149C9.23639 20.9149 9.24714 20.9149 9.2579 20.9362C9.26865 20.9575 9.2794 20.9468 9.29015 20.9362C9.29015 20.9362 9.2794 20.9362 9.2794 20.9255V20.9043C9.2794 20.9043 9.24714 20.9043 9.23639 20.9255V20.9149ZM9.2579 20.6809C9.33316 20.6915 9.38693 20.7128 9.44069 20.7447C9.4837 20.7766 9.52671 20.8085 9.58048 20.8511C9.58048 20.7979 9.58048 20.7553 9.55897 20.7341C9.53747 20.7128 9.51596 20.6915 9.4837 20.6809C9.45144 20.6809 9.41919 20.6809 9.37618 20.6809C9.33317 20.6809 9.30091 20.6809 9.2579 20.6809ZM9.29015 21.9787C9.29015 21.9787 9.33316 21.9575 9.34392 21.9255C9.35467 21.8936 9.35467 21.8724 9.34392 21.8511C9.34392 21.8724 9.32241 21.8936 9.31166 21.9149C9.30091 21.9362 9.29015 21.9575 9.2794 21.9787H9.29015ZM9.47295 21.0958C9.47295 21.0958 9.47295 21.0745 9.47295 21.0638C9.47295 21.0532 9.47295 21.0426 9.47295 21.0319C9.45145 21.0319 9.44069 21.0106 9.42994 20.9894C9.42994 20.9681 9.41919 20.9468 9.40843 20.9255C9.40843 20.9043 9.38693 20.883 9.37618 20.8723C9.36542 20.8511 9.34392 20.8511 9.32241 20.8511C9.34392 20.8936 9.36542 20.9468 9.37618 20.9894C9.39768 21.0319 9.42994 21.0745 9.47295 21.1064V21.0958ZM9.42994 21.3404C9.42994 21.3404 9.45144 21.2979 9.45144 21.266C9.45144 21.2341 9.45144 21.2128 9.40843 21.2128C9.40843 21.2341 9.40843 21.2553 9.40843 21.2766C9.40843 21.2979 9.40843 21.3192 9.42994 21.3404ZM9.4622 21.7128C9.4622 21.7128 9.4622 21.6915 9.4622 21.6809C9.4622 21.6596 9.4622 21.6489 9.4622 21.6489C9.4622 21.6489 9.4622 21.6702 9.45144 21.6809C9.45144 21.6915 9.45144 21.7021 9.45144 21.7128H9.4622ZM9.61273 20.9787C9.61273 20.9787 9.65575 21.0426 9.65575 21.0851C9.65575 21.1277 9.65575 21.1702 9.65575 21.2128C9.65575 21.2553 9.64499 21.2979 9.63424 21.3404C9.62349 21.383 9.61273 21.4255 9.61273 21.4681C9.60198 21.5 9.58048 21.5319 9.58048 21.5851C9.58048 21.6383 9.56972 21.6702 9.55897 21.7021C9.60198 21.6489 9.63424 21.5745 9.6665 21.5C9.69876 21.4255 9.72026 21.3404 9.72026 21.2553C9.72026 21.1702 9.72026 21.0958 9.72026 21.0106C9.72026 20.9255 9.688 20.8511 9.64499 20.7872H9.62349C9.62349 20.7872 9.61273 20.8511 9.61273 20.883C9.61273 20.9149 9.61273 20.9468 9.61273 20.9681V20.9787ZM9.56972 21.1489C9.56972 21.1489 9.56972 21.2021 9.56972 21.2128C9.56972 21.2128 9.56972 21.1915 9.56972 21.1809C9.56972 21.1702 9.56972 21.1596 9.54822 21.1489H9.56972Z" fill="white"/>
</g>
<defs>
<clipPath id="clip0_51_1256">
<rect width="32" height="32" fill="white"/>
</clipPath>
</defs>
</svg>
