<svg width="33" height="32" viewBox="0 0 33 32" fill="none" xmlns="http://www.w3.org/2000/svg">
<path fill-rule="evenodd" clip-rule="evenodd" d="M22.2868 6.22305L22.9573 6.1624H22.9695C22.9129 6.85093 22.8563 7.5324 22.8002 8.20808C22.3399 13.7497 21.9121 18.9015 21.7821 24.3623C20.5812 24.3577 19.3804 24.3538 18.1795 24.39C13.6531 24.4955 8.69349 24.6123 4.16181 24.955C3.69843 19.0048 4.03968 13.0642 4.48249 7.12428C10.4943 7.2903 16.0956 6.78336 22.2868 6.22305ZM23.7546 13.1655C23.5749 10.7233 23.3627 8.31512 23.1271 5.9909C16.5909 5.28041 9.26657 4.76592 2.5 5.10892C2.54091 5.73327 2.58283 6.35772 2.62475 6.98226C3.04263 13.2075 3.46113 19.4419 2.88805 25.6762L2.85167 26.301C6.33196 26.5705 9.81226 26.7787 13.2926 26.84C16.6758 26.938 21.0171 27.036 24.364 26.987C24.3358 24.3174 24.2459 21.5725 24.1068 18.822C25.7908 21.2254 27.9765 23.4802 30.2938 25.0638L29.9422 23.1283C29.2113 20.1074 29.5904 17.0865 29.9708 14.0542C30.209 12.1558 30.4478 10.253 30.4151 8.34285L30.5 5.01092C28.0917 7.36801 25.6399 10.2445 23.7546 13.1655ZM24.0014 16.8931C23.9584 16.1592 23.912 15.426 23.8626 14.6948C25.3216 13.5705 26.6713 12.5268 27.9504 11.3676C28.0347 12.2741 28.1486 13.1796 28.2624 14.0846C28.5555 16.4145 28.848 18.7405 28.6325 21.0676C27.3052 19.4347 25.7626 18.2338 24.0014 16.8931ZM9.75162 21.4011C12.565 19.6984 15.4268 17.1627 17.4762 15.2885V15.2762C15.4147 13.2795 12.6984 11.099 10.0305 9.75157C10.3829 11.9258 10.1982 14.1489 10.0143 16.3621C9.90708 17.6529 9.80013 18.9404 9.80013 20.2129L9.75162 21.4011Z" fill="white"/>
</svg>
