<svg width="235" height="249" viewBox="0 0 235 249" fill="none" xmlns="http://www.w3.org/2000/svg">
<path d="M227.568 135.906C225.343 132.425 223.333 129.011 222.917 125.025L222.945 124.653C223.252 120.474 225.32 116.927 227.619 113.309C227.816 112.999 228.015 112.687 228.215 112.375C230.321 109.084 232.497 105.684 233.388 101.751L233.392 101.731L233.395 101.71C233.839 98.5455 233.083 96.0036 231.615 93.853C230.159 91.7209 228.015 89.9891 225.71 88.4026C224.681 87.694 223.609 87.0078 222.546 86.3268C222.417 86.2441 222.288 86.1615 222.159 86.079C220.966 85.3142 219.789 84.552 218.678 83.7566C216.457 82.1663 214.542 80.4711 213.334 78.426C211.999 75.7345 211.876 72.8483 212.148 69.8223C212.267 68.497 212.46 67.159 212.656 65.8023C212.684 65.6056 212.712 65.4086 212.741 65.2111C212.962 63.6651 213.173 62.0981 213.258 60.5386C214.136 54.1902 212.726 49.9295 209.573 47.1281C206.458 44.3611 201.735 43.107 196.192 42.5207C195.689 42.4439 195.186 42.3698 194.685 42.2959C193.107 42.0636 191.544 41.8334 190.058 41.5266C188.098 41.122 186.32 40.5928 184.884 39.7803L184.876 39.7758C183.61 39.0903 182.599 37.8669 181.722 36.2955C180.848 34.7287 180.135 32.8673 179.434 30.9518C178.037 26.4511 176.328 21.1974 173.384 17.4318C171.903 15.5375 170.096 14 167.841 13.126C165.585 12.2518 162.921 12.057 159.755 12.7815C157.389 13.2209 155.205 13.8698 153.138 14.5468C152.435 14.7768 151.749 15.0088 151.075 15.237C149.751 15.6849 148.472 16.118 147.195 16.4917C143.627 17.4663 140.642 18.2151 137.685 16.3535C135.656 14.9887 133.554 13.0189 131.326 10.9282L131.306 10.9099C129.095 8.83549 126.768 6.65225 124.325 4.91476C121.875 3.17203 119.268 1.84683 116.492 1.53697C113.702 1.22563 110.797 1.94536 107.774 4.18591C105.05 5.84715 102.775 8.2984 100.585 10.6578C99.9465 11.3458 99.3152 12.0261 98.6821 12.6766C95.8398 15.5973 92.9357 17.9635 89.0358 18.2731C86.6711 18.2204 84.0309 17.5374 81.2434 16.6923C80.5471 16.4811 79.8411 16.2597 79.1295 16.0365C77.0074 15.3709 74.8346 14.6895 72.7138 14.2171C69.8768 13.5854 67.0599 13.3087 64.4727 13.9554C61.8655 14.6072 59.5369 16.1853 57.6699 19.1676C55.7533 22.0002 54.6842 25.4066 53.6536 28.6901C53.4017 29.493 53.152 30.2884 52.8928 31.0664C51.5577 35.0737 49.967 38.6539 46.6077 40.8547C44.5817 41.986 42.0318 42.56 39.2462 42.968C38.0749 43.1395 36.8738 43.2803 35.6599 43.4225C35.4304 43.4494 35.2004 43.4764 34.97 43.5036C33.5257 43.6743 32.0712 43.8554 30.6583 44.0996C27.8392 44.587 25.1362 45.3331 22.9546 46.7947C20.7528 48.2697 19.1104 50.4544 18.39 53.7476L18.39 53.7476L18.3889 53.7528C17.64 57.3592 18.0708 61.1118 18.4871 64.7388C18.5556 65.3352 18.6236 65.9281 18.686 66.5164C19.1314 70.7187 19.2946 74.712 17.4759 78.3477C16.1451 80.3698 14.1168 82.0353 11.7953 83.6011C10.6325 84.3855 9.40709 85.1378 8.16894 85.896L8.06928 85.9571C6.86697 86.6933 5.65399 87.4361 4.49377 88.2111C2.11365 89.801 -0.0898411 91.555 -1.58582 93.7438C-3.09415 95.9507 -3.86954 98.5795 -3.42671 101.874L-3.42488 101.887L-3.42231 101.901C-2.65086 105.945 -0.463509 109.505 1.62855 112.91C1.76643 113.134 1.9039 113.358 2.04052 113.581C4.26934 117.222 6.27178 120.706 6.48782 124.587C6.42036 126.215 5.8448 127.91 4.99428 129.654C4.15141 131.381 3.05804 133.118 1.96704 134.851L1.93113 134.908C-4.49329 143.815 -5.77562 149.636 -3.28494 154.53C-2.05836 156.941 0.0571508 159.064 2.76979 161.194C5.13602 163.052 7.99491 164.943 11.1732 167.046C11.6343 167.351 12.1022 167.66 12.5762 167.975C14.1199 169.157 15.2689 170.259 16.0374 171.532C16.8011 172.796 17.2089 174.262 17.2095 176.2C17.1706 178.379 16.9315 180.704 16.6865 183.087C16.6169 183.764 16.5468 184.445 16.4807 185.13C16.1835 188.205 15.9686 191.321 16.2729 194.197C16.5777 197.079 17.4068 199.758 19.2284 201.932C21.0518 204.109 23.8249 205.727 27.9164 206.57C30.1739 207.156 32.745 207.469 35.2773 207.778C35.9523 207.861 36.6246 207.943 37.2874 208.029C40.4785 208.447 43.4511 208.973 45.6673 210.128L45.6672 210.128L45.6799 210.134C46.7827 210.67 47.7304 211.76 48.5879 213.248C49.4403 214.727 50.1704 216.54 50.8693 218.45C52.3502 223.068 54.1435 228.407 57.1976 232.223C58.7337 234.142 60.6018 235.694 62.9258 236.575C65.2495 237.456 67.9898 237.651 71.2459 236.919C74.2758 236.389 76.9812 235.459 79.5642 234.571C79.8646 234.467 80.1634 234.365 80.4608 234.263C83.3281 233.285 86.0751 232.423 89.0711 232.226C90.5814 232.197 91.5227 232.493 92.91 233.308C95.3083 235.175 97.512 237.213 99.643 239.184C100.23 239.726 100.811 240.264 101.389 240.791C104.06 243.227 106.67 245.451 109.411 246.869C112.169 248.295 115.077 248.914 118.325 248.123C121.551 247.337 125.05 245.173 129.037 241.162C130.177 240.166 131.215 239.102 132.209 238.074L132.378 237.899C133.319 236.926 134.22 235.993 135.152 235.164C137.113 233.417 139.155 232.176 141.819 232.061C145.074 232.218 148.262 233.309 151.563 234.439C152.467 234.749 153.38 235.061 154.305 235.358C158.571 236.728 163.037 237.737 167.815 236.307L167.832 236.302L167.848 236.296C173.785 234.054 176.022 228.634 177.807 223.239C178.014 222.613 178.214 221.988 178.414 221.367C179.083 219.283 179.738 217.245 180.565 215.379C181.631 212.978 182.958 210.927 184.905 209.509C187.902 207.9 191.6 207.396 195.478 206.867C195.981 206.798 196.487 206.729 196.995 206.657C201.377 206.037 205.872 205.201 209.397 202.406L209.413 202.393L209.429 202.379C214.121 197.973 213.849 192.285 213.089 186.687C212.99 185.962 212.884 185.24 212.778 184.52C212.47 182.432 212.166 180.37 212.075 178.353C211.953 175.66 212.216 173.113 213.335 170.805C214.543 168.761 216.459 167.067 218.682 165.476C219.794 164.68 220.972 163.918 222.166 163.152C222.288 163.074 222.411 162.995 222.533 162.917C223.604 162.231 224.683 161.54 225.719 160.826C228.024 159.237 230.166 157.502 231.616 155.365C233.077 153.209 233.823 150.66 233.361 147.487L233.358 147.468L233.354 147.449C232.462 143.513 230.277 140.117 228.162 136.831C227.963 136.522 227.765 136.214 227.568 135.906ZM231.443 101.367L231.442 101.37C230.676 104.976 228.7 108.147 226.647 111.442C226.434 111.783 226.221 112.125 226.008 112.47C223.773 116.083 221.605 119.889 221.221 124.479L221.197 124.526L221.136 124.649L221.146 124.787C221.49 129.422 223.665 133.265 225.911 136.909C226.132 137.267 226.353 137.622 226.573 137.977C228.615 141.261 230.578 144.42 231.342 147.997L231.343 148C232.208 151.949 229.443 155.241 226.197 157.556L226.188 157.562L226.18 157.569C224.46 158.909 222.559 160.04 220.616 161.196C219.76 161.705 218.895 162.219 218.035 162.758C215.251 164.503 212.559 166.48 210.58 169.315L210.569 169.331L210.559 169.348C208.753 172.418 208.402 175.839 208.495 179.223C208.539 180.847 208.687 182.476 208.83 184.061L208.848 184.263C208.998 185.918 209.138 187.52 209.154 189.048L209.154 189.058L209.155 189.067C209.254 191.085 209.21 193.116 208.812 194.859C208.414 196.598 207.679 197.99 206.445 198.826C203.04 200.9 199.055 201.29 194.801 201.637C194.654 201.649 194.507 201.661 194.359 201.673C190.269 202.005 185.961 202.354 181.949 204.299L181.945 204.301C177.108 206.698 175.012 211.793 173.256 216.092C172.751 217.245 172.286 218.505 171.821 219.764C171.634 220.269 171.448 220.774 171.259 221.271C170.591 223.029 169.887 224.717 169.016 226.129C168.146 227.539 167.131 228.638 165.86 229.259C164.602 229.874 163.033 230.051 160.992 229.511C158.731 228.843 156.686 228.186 154.808 227.579L154.33 227.425C152.637 226.877 151.076 226.373 149.618 225.942C146.432 225.003 143.687 224.403 141.028 224.487C135.666 224.656 130.821 227.597 123.43 235.51C121.989 236.881 120.491 238.162 119.075 239.081C117.649 240.008 116.386 240.514 115.388 240.466C112.119 239.936 109.299 237.541 106.376 234.663C105.882 234.177 105.385 233.677 104.883 233.173C102.458 230.733 99.9216 228.18 97.0313 226.501C91.8143 222.968 86.1885 224.121 80.7849 225.861C79.7765 226.186 78.7814 226.529 77.7955 226.869C76.1027 227.452 74.4371 228.027 72.7779 228.483C70.2023 229.19 67.736 229.581 65.4011 229.245C62.4235 227.547 60.869 224.313 59.5367 220.587C59.2488 219.782 58.9657 218.937 58.6799 218.084C58.3162 216.998 57.9483 215.9 57.561 214.855C56.8617 212.97 56.0578 211.135 54.9829 209.534C52.2031 203.846 46.5775 202.213 40.8175 201.337C39.4985 201.136 38.161 200.974 36.8416 200.814C36.7121 200.798 36.5829 200.783 36.4538 200.767C35.0057 200.591 33.5828 200.413 32.2135 200.184C29.4723 199.727 26.9966 199.071 25.0283 197.86C24.1038 197.231 23.5136 196.092 23.1923 194.539C22.8713 192.989 22.8354 191.106 22.9513 189.105L22.9515 189.105L22.9519 189.092C22.9995 187.601 23.1603 186.019 23.328 184.369L23.3467 184.184C23.5203 182.475 23.6965 180.697 23.7493 178.916C23.8549 175.354 23.4701 171.717 21.5472 168.448L21.5403 168.436L21.5327 168.425C19.5388 165.421 16.7651 163.275 13.9034 161.413C12.8764 160.744 11.8473 160.117 10.8367 159.501C8.99714 158.38 7.21847 157.296 5.62362 156.067L5.61959 156.064C2.73652 153.888 0.465502 151.631 1.09856 148.262C1.63386 145.954 2.78832 143.591 4.1494 141.148C4.62387 140.297 5.12576 139.432 5.63277 138.559C6.56726 136.949 7.51917 135.308 8.34892 133.666C10.9175 128.584 12.4771 123.185 9.10036 117.612C8.15212 115.564 6.77647 113.446 5.40745 111.339C5.33974 111.235 5.27205 111.131 5.20442 111.027C3.75314 108.792 2.32997 106.568 1.37644 104.379C0.423427 102.193 -0.0338709 100.1 0.383445 98.1187C0.797597 96.1528 2.09262 94.2087 4.8289 92.3517C5.85018 91.6698 6.81964 91.0288 7.73857 90.4211C10.4349 88.6382 12.6961 87.1429 14.5549 85.7479C17.0528 83.8731 18.8759 82.1429 20.0942 80.0728C22.5324 75.93 22.4593 70.5702 21.0459 60.371C20.8976 58.3549 20.8695 56.2646 21.2431 54.4074C21.6169 52.5495 22.3827 50.9713 23.7872 49.9196L23.7872 49.9196L23.7921 49.9159C25.2315 48.8104 27.0153 48.1481 28.9807 47.6974C30.6601 47.3124 32.4379 47.0885 34.2185 46.8643C34.5194 46.8264 34.8204 46.7885 35.121 46.7498C40.3612 46.4971 44.1228 45.7161 46.9382 44.4313C49.7725 43.138 51.6225 41.3459 53.0526 39.1276C54.4134 37.0168 55.3961 34.5139 56.4905 31.7264C56.5355 31.6118 56.5807 31.4968 56.6261 31.3812C57.7799 28.4447 59.0909 25.1635 61.1221 21.5668C62.182 19.9294 63.4816 18.9701 64.9507 18.5131C66.4304 18.0529 68.125 18.0893 69.9846 18.5234C72.7576 19.3445 75.1663 20.1523 77.3402 20.8814C78.654 21.322 79.8821 21.7339 81.0531 22.1026C84.136 23.0733 86.7827 23.7299 89.3531 23.717C94.5452 23.6909 99.2612 20.938 106.635 13.1945C108.11 11.8384 109.657 10.5419 111.166 9.59769C112.679 8.65201 114.091 8.09969 115.32 8.13435C117.589 8.50388 119.638 9.70081 121.633 11.3319C123.231 12.6382 124.763 14.194 126.334 15.7896C126.739 16.2016 127.147 16.6162 127.56 17.0299C131.531 21.0112 135.899 24.8997 141.901 24.5424C145.828 24.5543 149.581 23.1876 153.171 21.8807C153.492 21.7637 153.812 21.6472 154.131 21.5322C158.031 20.125 161.735 18.9422 165.467 19.5853C168.619 21.3181 170.273 24.5704 171.67 28.3066C172.004 29.1994 172.321 30.1118 172.641 31.0328L172.688 31.1681C173.023 32.1328 173.362 33.1056 173.724 34.0607C174.445 35.9613 175.267 37.8149 176.361 39.4411C179.447 45.1276 185.063 46.5133 190.775 47.1897C191.945 47.3282 193.108 47.4363 194.259 47.5433C195.966 47.7019 197.647 47.8581 199.287 48.1077C202.005 48.5214 204.483 49.1783 206.507 50.4705C207.76 51.3225 208.497 52.7324 208.895 54.4861C209.294 56.2426 209.338 58.2825 209.255 60.3032L209.254 60.3108L209.254 60.3183C209.238 61.8376 209.098 63.4333 208.948 65.0837L208.931 65.2781C208.787 66.8609 208.639 68.4903 208.595 70.114C208.502 73.4943 208.853 76.9153 210.659 79.9852L210.669 80.0019L210.68 80.0178C212.659 82.853 215.351 84.8303 218.135 86.5746C218.996 87.1138 219.86 87.6281 220.716 88.1376C222.659 89.2933 224.56 90.4243 226.28 91.7642L226.289 91.7706L226.297 91.7768C229.542 94.0907 232.308 97.416 231.443 101.367Z" fill="#FF3347" stroke="#FF3347"/>
</svg>
