<svg width="65" height="65" viewBox="0 0 65 65" fill="none" xmlns="http://www.w3.org/2000/svg">
<rect width="64" height="64" rx="32" fill="white"/>
<path d="M48.1661 59.4754C51.175 57.7506 53.8292 55.4204 55.9532 52.663C56.2284 52.3284 56.5615 51.8106 56.8239 51.4586C57.118 51.0485 57.4494 50.4796 57.7262 50.0533C57.8951 49.7581 58.1929 49.2209 58.362 48.9215C65.3065 35.863 61.762 18.3489 50.3544 8.59876C39.0114 -1.14334 22.7344 -0.421403 12.4378 9.75539C0.270315 21.7085 0.517151 41.3393 12.9354 53.6766C17.8274 58.4855 24.2325 61.8112 30.978 62.7419C36.918 63.5843 43.0073 62.4566 48.1661 59.4754ZM48.3325 59.7638C41.3473 63.831 32.7629 65.3173 24.7186 63.4735C18.6875 62.1276 12.9596 58.7515 8.73458 54.0491C-2.57431 41.7483 -2.68048 22.315 8.37886 10.4497C16.2541 1.90016 28.9374 -1.29211 40.1958 1.83914C57.3087 6.26855 68.6081 23.8532 63.3102 41.1556C60.9081 49.0498 55.3215 55.7191 48.3335 59.7632L48.3325 59.7638Z" fill="#DFDFDF"/>
<path d="M63.8192 31.9482C63.8299 28.4799 63.1389 25.0163 61.813 21.798C61.6608 21.3925 61.379 20.8451 61.2053 20.4418C60.9972 19.9821 60.6702 19.4106 60.4395 18.9578C60.2683 18.6639 59.9519 18.1374 59.7771 17.8412C51.9404 5.29792 35.0005 -0.389555 20.8529 4.61464C6.74443 9.56698 -0.768817 24.0242 2.89624 38.0297C7.16421 54.5436 24.2884 64.1453 41.1819 59.5594C47.7926 57.7273 53.8752 53.8431 58.054 48.4667C61.7535 43.7437 63.8215 37.9064 63.8192 31.9482ZM64.1521 31.9482C64.1819 40.0311 61.1768 48.2086 55.5579 54.2533C51.3768 58.8035 45.589 62.0759 39.4041 63.3837C23.0968 67.027 6.21405 57.4024 1.46803 41.892C-1.99843 30.7971 1.57862 18.2169 9.91954 10.0325C22.312 -2.57306 43.1904 -3.56629 55.5258 9.67298C61.1613 15.7004 64.1438 23.8732 64.1521 31.947V31.9482Z" fill="black"/>
<path d="M29.1385 18.0254H19.418V45.6335H29.1385V18.0254Z" fill="black"/>
<path d="M29.0784 18.0686C25.6449 18.2756 22.5166 18.4975 19.4188 18.5862L20.014 18.0095C20.1666 22.6084 20.1055 27.2072 19.8461 31.8061C19.5714 36.405 19.6325 41.0039 19.8461 45.6028L19.4341 45.2036C22.6692 45.0557 25.9196 44.9522 29.1547 44.9078L28.4374 45.6028C28.178 36.5825 28.6206 27.1185 29.1089 18.0538L29.0784 18.0686ZM29.1852 17.9651C29.7651 27.3403 30.1008 36.893 29.8414 46.3274C26.2248 46.283 22.5929 46.1647 18.9763 46.0021C19.0984 43.5769 19.1594 41.137 19.1747 38.7119C19.1289 31.6139 18.4575 24.5159 18.8237 17.418C22.3487 17.5067 25.9653 17.7285 29.1852 17.9651Z" fill="black"/>
<path d="M46.5291 18.0254H36.8086V45.6335H46.5291V18.0254Z" fill="black"/>
<path d="M46.489 18.0686C43.0555 18.2756 39.9272 18.4975 36.8295 18.5862L37.4246 18.0095C37.5772 22.6084 37.5162 27.2072 37.2567 31.8061C36.9821 36.405 37.0431 41.0039 37.2567 45.6028L36.8447 45.2036C40.0798 45.0557 43.3302 44.9522 46.5653 44.9078L45.8481 45.6028C45.5886 36.5825 46.0312 27.1185 46.5195 18.0538L46.489 18.0686ZM46.5958 17.9651C47.1757 27.3403 47.5114 36.893 47.252 46.3274C43.6354 46.283 40.0035 46.1647 36.3869 46.0021C36.509 43.5769 36.57 41.137 36.5853 38.7119C36.5395 31.6139 35.8681 24.5159 36.2496 17.418C39.7746 17.5067 43.3912 17.7285 46.6111 17.9651H46.5958Z" fill="black"/>
</svg>
