<svg width="30" height="31" viewBox="0 0 30 31" fill="none" xmlns="http://www.w3.org/2000/svg">
<path fill-rule="evenodd" clip-rule="evenodd" d="M0.922693 26.1412C0.930505 22.2467 0.69613 18.3522 0.461755 14.4576C0.25863 11.0924 0.0594117 7.72716 0.0125367 4.36192C-0.100745 3.00645 0.563318 1.68224 1.6141 0.85411C2.3016 0.313095 3.15316 -0.0150302 4.06332 0.000594826C10.7625 -0.0091708 17.4618 0.102157 24.1649 0.272079C24.368 0.283798 24.6375 0.287704 24.9344 0.293564L25.4657 0.301376C25.9696 0.313095 26.4774 0.340439 26.8133 0.420517C27.5828 0.582626 28.2703 1.01817 28.7782 1.60606C29.3797 2.29942 29.7313 3.20177 29.6844 4.11192C29.4032 10.8111 29.325 17.5104 29.6844 24.2115C29.6805 24.5045 29.7 24.819 29.7235 25.1451C29.7821 26.0514 29.8407 27.0338 29.4227 27.8209C28.8524 29.0709 27.5243 29.9811 26.0946 30.0006C23.1024 30.1158 19.9578 30.0807 16.7977 29.9733C13.1453 29.8502 9.46957 29.6295 5.993 29.4303C5.50472 29.3775 5.00082 29.3912 4.50082 29.3775C3.85238 29.358 3.21566 29.2897 2.63363 28.9615C1.59457 28.4205 0.903162 27.2916 0.922693 26.1412ZM1.12191 26.1412C1.12191 26.6744 1.28207 27.1998 1.56332 27.651C1.84847 28.1139 2.26254 28.4986 2.75472 28.7311C3.75472 29.2018 4.91488 28.9303 5.993 28.9205L12.6922 28.5514C17.1649 28.2721 21.6219 28.2213 26.0946 28.3522C26.9032 28.3912 27.7547 27.9615 28.1844 27.2018C28.2743 27.0436 28.3407 26.8893 28.3914 26.7272C28.4696 26.485 28.5086 26.2193 28.5125 25.8912C28.9149 18.6412 28.9227 11.3717 28.5946 4.11192C28.5438 2.95177 27.6532 1.98106 26.5438 1.83067C26.286 1.80528 25.5164 1.82677 24.9032 1.84434L24.1727 1.86192C17.4735 2.03184 10.7743 2.15099 4.07504 2.13145C3.15316 2.10216 2.27426 2.80138 2.08285 3.71153C2.05941 3.82872 2.04379 4.09239 2.03207 4.40294L2.01254 5.09239L1.99301 6.03184C1.91097 9.50255 1.6766 12.9733 1.47347 16.4459C1.28597 19.6744 1.12582 22.9029 1.12191 26.1412ZM9.13754 11.0006C3.68832 16.6022 6.97738 25.9713 15.075 26.0807C19.9852 26.1822 23.4461 21.4908 23.2469 16.942C23.3875 8.84044 14.786 4.90099 9.13754 11.0006ZM17.9969 20.942L15.0985 19.0318L11.536 21.8717L12.0008 20.3795L12.868 17.6412L10.3641 15.8619L9.03597 14.901L13.8758 15.2311C14.286 14.192 14.7547 13.2311 15.075 12.3404C15.2625 12.8756 15.4969 13.4303 15.743 14.0084C15.9188 14.4147 16.0985 14.8326 16.2664 15.2623L21.0477 14.9713L17.0672 17.5904L17.9969 20.942ZM7.03207 4.54552C6.62972 6.82286 6.23129 9.10606 7.59457 9.87169C9.14535 8.48106 11.075 7.51036 13.2157 7.16075C13.0828 6.36192 11.1961 5.34044 7.1141 4.06114L7.03207 4.54552ZM16.9149 7.18028C19.0633 7.55138 21.0047 8.54161 22.5438 9.9713C23.3328 9.39122 23.1532 6.68028 23.036 4.07091C19.6961 5.192 16.8563 6.28184 16.9149 7.18028Z" fill="black"/>
</svg>
