<svg width="32" height="32" viewBox="0 0 32 32" fill="none" xmlns="http://www.w3.org/2000/svg">
<rect width="32" height="32" fill="white"/>
<path fill-rule="evenodd" clip-rule="evenodd" d="M27.8029 1.42055C29.4829 1.77055 30.7629 3.43055 30.6729 5.11055C30.2313 15.6839 30.5002 21.3326 30.6547 24.5763C30.829 28.2381 30.8574 28.8345 29.5529 29.9905C29.4729 29.3005 29.3929 28.6105 29.3029 27.9205C29.9429 26.4405 29.8529 11.1605 29.5729 5.11055C29.5229 3.95055 28.6329 2.97055 27.5329 2.82055C27.3759 2.80545 26.3425 2.83138 24.6508 2.87385C20.74 2.972 13.3106 3.15847 5.05287 3.13055C4.13287 3.10055 3.25287 3.80055 3.06287 4.72055C3.04287 4.82055 1.89287 26.7405 2.19287 27.7405C2.17787 27.8155 2.16037 27.8905 2.14287 27.9655C2.12537 28.0405 2.10787 28.1155 2.09287 28.1905C1.97287 27.8505 1.90287 27.4905 1.91287 27.1305C1.91823 23.2462 1.68821 19.359 1.45811 15.4705C1.25873 12.1012 1.0593 8.73087 1.01287 5.36055C0.822874 3.12055 2.76287 0.960547 5.05287 1.00055C8.55287 1.00055 26.6329 1.14055 27.8029 1.42055ZM17.1038 30.9509C17.8938 31.0009 27.1637 31.3609 28.6238 30.6409C27.6255 22.7947 27.4435 18.9719 27.3377 16.7477C27.224 14.3596 27.198 13.8143 26.3438 12.1109C26.104 11.6255 26.0763 11.3864 26.0286 10.9756C25.9947 10.6838 25.9508 10.3055 25.8137 9.69086C25.1966 10.8797 24.9172 11.1955 24.7381 11.398C24.5225 11.6416 24.4524 11.7209 24.1138 12.9609C24.1138 12.9609 21.9738 13.1309 20.9438 13.1309C20.7033 13.1309 20.5521 13.1448 20.4389 13.0858C20.1567 12.9389 20.1104 12.339 19.5037 9.94086C18.7546 11.1395 18.2823 11.8268 17.9748 12.2744C17.6666 12.7229 17.5239 12.9306 17.4338 13.1709C16.9464 16.483 17.0251 17.2295 17.1002 17.9418C17.1916 18.8079 17.2776 19.6234 16.3337 24.9409C15.6866 19.29 15.5224 16.1332 15.4175 14.1168C15.2809 11.4907 15.2449 10.7987 14.3737 9.05086C14.134 8.56554 14.1063 8.32639 14.0586 7.91558C14.0247 7.62382 13.9808 7.24547 13.8438 6.63086C13.216 7.84513 12.9368 8.15657 12.7588 8.35504C12.5485 8.5897 12.4797 8.66643 12.1438 9.89086L12.1131 9.89331C11.5299 9.94004 8.56151 10.1779 8.44375 10.0209C8.20081 9.70157 8.09277 9.23292 7.88555 8.33402C7.79422 7.93787 7.68364 7.45817 7.53375 6.87086C6.83021 7.99852 6.36069 8.688 6.04322 9.15421C5.72443 9.62236 5.55895 9.86537 5.46375 10.1009C4.96417 13.5033 5.06619 14.3976 5.1594 15.2147C5.31246 16.5565 5.44176 17.6898 2.84375 29.3809C3.66375 30.2809 4.09375 30.5509 17.1038 30.9509Z" fill="black"/>
</svg>
