<svg width="32" height="32" viewBox="0 0 32 32" fill="none" xmlns="http://www.w3.org/2000/svg">
<rect width="32" height="32" fill="white"/>
<path fill-rule="evenodd" clip-rule="evenodd" d="M1.92272 27.1412C1.93444 19.8815 1.11413 12.6217 1.01256 5.36192C0.825064 3.12169 2.76256 0.961532 5.06334 1.00059C11.7626 0.990829 18.4618 1.10216 25.1649 1.27208C25.3641 1.2838 25.6337 1.2877 25.9266 1.29161C26.2587 1.29552 26.6258 1.30138 26.9657 1.31895C27.2899 1.33653 27.5907 1.36583 27.8133 1.42052C28.9383 1.65684 29.8876 2.47911 30.3602 3.50059C30.5946 4.0045 30.7157 4.55724 30.6844 5.11192C30.5477 8.35606 30.4579 11.6002 30.4462 14.8443C30.4305 18.2994 30.5008 21.7545 30.6844 25.2115C30.6727 26.3209 30.993 27.7506 30.4227 28.8209C30.161 29.3971 29.7391 29.899 29.2196 30.276C28.6102 30.7193 27.868 30.9908 27.0946 31.0006C20.6454 31.2506 13.4735 30.8014 6.99303 30.4303C6.65319 30.3951 6.30944 30.3912 5.96178 30.3873C5.161 30.3775 4.35241 30.3658 3.63366 29.9615C2.59459 29.4205 1.90319 28.2916 1.92272 27.1412ZM2.13756 27.4264C2.17272 27.7233 2.25084 28.0143 2.37194 28.2858C2.50475 28.5865 2.68834 28.8639 2.911 29.1041C3.14928 29.3639 3.43444 29.5807 3.75475 29.7311C4.49694 30.0787 5.32506 30.0201 6.14147 29.9615C6.42663 29.942 6.71178 29.9225 6.99303 29.9205L13.6923 29.5514C16.0321 29.4049 18.368 29.3209 20.704 29.2936C22.8329 29.2682 24.9618 29.2897 27.0946 29.3522C27.5165 29.3717 27.9501 29.2643 28.329 29.0494C28.6766 28.8522 28.9774 28.565 29.1844 28.2018C29.4032 27.8111 29.5048 27.442 29.5126 26.8912C29.6649 24.1373 29.7626 21.3795 29.8055 18.6217C29.8719 14.1197 29.7977 9.61388 29.5946 5.11192C29.5438 3.95177 28.6532 2.98106 27.5438 2.83067C27.286 2.80528 26.5165 2.82677 25.9032 2.84434L25.1727 2.86192C18.4735 3.03184 11.7743 3.15099 5.07506 3.13145C4.15319 3.10216 3.27428 3.80138 3.08288 4.71153C3.03209 4.94786 3.02038 5.78184 3.00866 6.40489L2.99303 7.03184C2.92272 9.91661 2.75084 12.8014 2.57897 15.6881L2.56725 15.8756C2.34459 19.6275 2.12194 23.3815 2.12194 27.1412C2.12194 27.2369 2.12584 27.3326 2.13756 27.4264ZM20.9657 17.11C18.0165 19.0611 17.6454 19.1315 17.704 20.5006C16.5165 20.4908 15.3251 20.4713 14.1454 20.4205C13.9071 16.7096 17.7548 15.5611 20.1766 13.7604C21.4852 12.94 21.036 11.0299 19.7469 10.4498C17.8055 9.55138 14.1063 9.64122 12.7157 11.5006C12.2274 12.1608 12.036 13.0104 11.8758 13.7897C11.7235 13.7818 9.05553 13.5377 8.37194 13.4752L8.21569 13.4596L8.29381 12.8912C8.61413 9.57091 11.5555 6.77989 14.8758 6.6002C24.1844 5.74083 26.536 13.94 20.9657 17.11ZM16.786 25.5709C17.1962 24.7604 17.6141 23.3404 17.7743 22.1803C16.1454 21.901 15.1141 21.8912 13.9657 21.9596C14.0243 23.1647 13.9032 23.6061 13.6571 24.3697C13.5633 24.6588 13.4501 24.9928 13.3251 25.4303C14.3954 25.7506 15.7548 25.7897 16.786 25.5709Z" fill="black"/>
</svg>
