<svg width="32" height="32" viewBox="0 0 32 32" fill="none" xmlns="http://www.w3.org/2000/svg">
<path fill-rule="evenodd" clip-rule="evenodd" d="M1.92269 27.1412C1.93051 23.2467 1.69613 19.3522 1.46176 15.4576C1.25863 12.0924 1.05941 8.72716 1.01254 5.36192C0.899255 4.00645 1.56332 2.68224 2.6141 1.85411C3.3016 1.31309 4.15316 0.98497 5.06332 1.00059C11.7625 0.990829 18.4618 1.10216 25.1649 1.27208C25.368 1.2838 25.6375 1.2877 25.9344 1.29356L26.4657 1.30138C26.9696 1.31309 27.4774 1.34044 27.8133 1.42052C28.5828 1.58263 29.2703 2.01817 29.7782 2.60606C30.3797 3.29942 30.7313 4.20177 30.6844 5.11192C30.4032 11.8111 30.325 18.5104 30.6844 25.2115C30.6805 25.5045 30.7 25.819 30.7235 26.1451C30.7821 27.0514 30.8407 28.0338 30.4227 28.8209C29.8524 30.0709 28.5243 30.9811 27.0946 31.0006C24.1024 31.1158 20.9578 31.0807 17.7977 30.9733C14.1453 30.8502 10.4696 30.6295 6.993 30.4303C6.50472 30.3775 6.00082 30.3912 5.50082 30.3775C4.85238 30.358 4.21566 30.2897 3.63363 29.9615C2.59457 29.4205 1.90316 28.2916 1.92269 27.1412ZM2.12191 27.1412C2.12191 27.6744 2.28207 28.1998 2.56332 28.651C2.84847 29.1139 3.26254 29.4986 3.75472 29.7311C4.75472 30.2018 5.91488 29.9303 6.993 29.9205L13.6922 29.5514C18.1649 29.2721 22.6219 29.2213 27.0946 29.3522C27.9032 29.3912 28.7547 28.9615 29.1844 28.2018C29.2743 28.0436 29.3407 27.8893 29.3914 27.7272C29.4696 27.485 29.5086 27.2193 29.5125 26.8912C29.9149 19.6412 29.9227 12.3717 29.5946 5.11192C29.5438 3.95177 28.6532 2.98106 27.5438 2.83067C27.286 2.80528 26.5164 2.82677 25.9032 2.84434L25.1727 2.86192C18.4735 3.03184 11.7743 3.15099 5.07504 3.13145C4.15316 3.10216 3.27426 3.80138 3.08285 4.71153C3.05941 4.82872 3.04379 5.09239 3.03207 5.40294L3.01254 6.09239L2.99301 7.03184C2.91097 10.5025 2.6766 13.9733 2.47347 17.4459C2.28597 20.6744 2.12582 23.9029 2.12191 27.1412ZM10.1375 12.0006C4.68832 17.6022 7.97738 26.9713 16.075 27.0807C20.9852 27.1822 24.4461 22.4908 24.2469 17.942C24.3875 9.84044 15.786 5.90099 10.1375 12.0006ZM18.9969 21.942L16.0985 20.0318L12.536 22.8717L13.0008 21.3795L13.868 18.6412L11.3641 16.8619L10.036 15.901L14.8758 16.2311C15.286 15.192 15.7547 14.2311 16.075 13.3404C16.2625 13.8756 16.4969 14.4303 16.743 15.0084C16.9188 15.4147 17.0985 15.8326 17.2664 16.2623L22.0477 15.9713L18.0672 18.5904L18.9969 21.942ZM8.03207 5.54552C7.62972 7.82286 7.23129 10.1061 8.59457 10.8717C10.1453 9.48106 12.075 8.51036 14.2157 8.16075C14.0828 7.36192 12.1961 6.34044 8.1141 5.06114L8.03207 5.54552ZM17.9149 8.18028C20.0633 8.55138 22.0047 9.54161 23.5438 10.9713C24.3328 10.3912 24.1532 7.68028 24.036 5.07091C20.6961 6.192 17.8563 7.28184 17.9149 8.18028Z" fill="black"/>
</svg>
